<svg width="93" height="93" viewBox="0 0 93 93" fill="none" xmlns="http://www.w3.org/2000/svg">
<g filter="url(#filter0_d_168_951)">
<rect x="20" y="18" width="53" height="53" rx="5" fill="#514BDC"/>
<path d="M46 35.5625C45.351 35.5625 44.7166 35.3701 44.177 35.0095C43.6374 34.649 43.2169 34.1365 42.9685 33.5369C42.7202 32.9374 42.6552 32.2776 42.7818 31.6411C42.9084 31.0046 43.2209 30.4199 43.6798 29.9611C44.1387 29.5022 44.7234 29.1897 45.3599 29.063C45.9964 28.9364 46.6561 29.0014 47.2557 29.2498C47.8553 29.4981 48.3677 29.9187 48.7283 30.4583C49.0888 30.9979 49.2813 31.6323 49.2813 32.2813C49.2803 33.1512 48.9343 33.9853 48.3192 34.6004C47.704 35.2156 46.87 35.5616 46 35.5625Z" fill="#F8F8F8"/>
<path d="M56.3125 35.6093L56.2862 35.6163L56.2615 35.6239C56.203 35.6403 56.1444 35.6579 56.0858 35.6761C54.9953 35.996 49.7031 37.4878 45.9748 37.4878C42.5102 37.4878 37.6967 36.1987 36.1569 35.761C36.0036 35.7018 35.8471 35.6513 35.6881 35.6099C34.5748 35.3169 33.8131 36.4478 33.8131 37.4814C33.8131 38.505 34.733 38.9925 35.6617 39.3423V39.3587L41.241 41.1013C41.8112 41.3198 41.9635 41.5431 42.0379 41.7364C42.2799 42.3569 42.0865 43.5857 42.018 44.0146L41.6782 46.6513L39.792 56.9749C39.7862 57.003 39.7809 57.0318 39.7762 57.0611L39.7627 57.1355C39.6268 58.0818 40.3217 58.9999 41.6377 58.9999C42.7862 58.9999 43.293 58.2071 43.5127 57.1284C43.7324 56.0497 45.1533 47.8958 45.9737 47.8958C46.794 47.8958 48.4838 57.1284 48.4838 57.1284C48.7035 58.2071 49.2104 58.9999 50.3588 58.9999C51.6783 58.9999 52.3733 58.0777 52.2338 57.1284C52.2218 57.0486 52.207 56.9693 52.1893 56.8905L50.2774 46.6525L49.9381 44.0157C49.6926 42.48 49.8901 41.9726 49.9569 41.8536C49.9586 41.8508 49.9602 41.8479 49.9615 41.8448C50.0248 41.7277 50.3131 41.4652 50.9858 41.2126L56.217 39.3839C56.2491 39.3753 56.2808 39.3652 56.3119 39.3534C57.2494 39.0019 58.1869 38.5155 58.1869 37.4825C58.1869 36.4495 57.4258 35.3169 56.3125 35.6093Z" fill="#F8F8F8"/>
</g>
<defs>
<filter id="filter0_d_168_951" x="0" y="0" width="93" height="93" filterUnits="userSpaceOnUse" color-interpolation-filters="sRGB">
<feFlood flood-opacity="0" result="BackgroundImageFix"/>
<feColorMatrix in="SourceAlpha" type="matrix" values="0 0 0 0 0 0 0 0 0 0 0 0 0 0 0 0 0 0 127 0" result="hardAlpha"/>
<feOffset dy="2"/>
<feGaussianBlur stdDeviation="10"/>
<feComposite in2="hardAlpha" operator="out"/>
<feColorMatrix type="matrix" values="0 0 0 0 0 0 0 0 0 0 0 0 0 0 0 0 0 0 0.1 0"/>
<feBlend mode="normal" in2="BackgroundImageFix" result="effect1_dropShadow_168_951"/>
<feBlend mode="normal" in="SourceGraphic" in2="effect1_dropShadow_168_951" result="shape"/>
</filter>
</defs>
</svg>
