<svg width="221" height="85" viewBox="0 0 221 85" fill="none" xmlns="http://www.w3.org/2000/svg">
<g filter="url(#filter0_d_148_973)">
<rect x="9" y="6" width="201" height="65" rx="10" fill="white" shape-rendering="crispEdges"/>
<path d="M42.0938 25.8343V51.1643C42.0939 51.2193 42.1103 51.273 42.1409 51.3187C42.1714 51.3643 42.2148 51.4 42.2655 51.4211C42.3162 51.4422 42.3721 51.4479 42.426 51.4374C42.48 51.427 42.5296 51.4008 42.5688 51.3622L55.7578 38.4999L42.5688 25.6364C42.5296 25.5978 42.48 25.5716 42.426 25.5612C42.3721 25.5507 42.3162 25.5564 42.2655 25.5775C42.2148 25.5986 42.1714 25.6343 42.1409 25.6799C42.1103 25.7256 42.0939 25.7793 42.0938 25.8343ZM61.2879 33.2148L44.7505 24.1037L44.7402 24.0979C44.4553 23.9432 44.1846 24.3286 44.4179 24.5529L57.3814 36.9486L61.2879 33.2148ZM44.4192 52.447C44.1846 52.6713 44.4553 53.0567 44.7415 52.902L44.7518 52.8962L61.2879 43.7851L57.3814 40.05L44.4192 52.447ZM67.9639 36.8886L63.3459 34.3453L59.0037 38.4999L63.3459 42.6527L67.9639 40.1113C69.2201 39.4171 69.2201 37.5828 67.9639 36.8886Z" fill="#514BDC"/>
<path d="M82.132 31L85.396 22.06H86.428L89.692 31H88.684L87.916 28.816H83.92L83.14 31H82.132ZM84.232 27.916H87.58L85.768 22.78H86.056L84.232 27.916ZM92.5213 31L89.2453 22.06H90.2413L93.1213 30.148H92.9293L95.7973 22.06H96.8053L93.5293 31H92.5213ZM96.3586 31L99.6226 22.06H100.655L103.919 31H102.911L102.143 28.816H98.1466L97.3666 31H96.3586ZM98.4586 27.916H101.807L99.9946 22.78H100.283L98.4586 27.916ZM105.111 31V22.06H106.071V31H105.111ZM108.181 31V22.06H109.141V30.1H113.101V31H108.181ZM113.632 31L116.896 22.06H117.928L121.192 31H120.184L119.416 28.816H115.42L114.64 31H113.632ZM115.732 27.916H119.08L117.268 22.78H117.556L115.732 27.916ZM122.384 31V22.06H126.14C126.644 22.06 127.08 22.156 127.448 22.348C127.824 22.532 128.112 22.792 128.312 23.128C128.52 23.464 128.624 23.856 128.624 24.304C128.624 24.768 128.508 25.18 128.276 25.54C128.052 25.892 127.728 26.16 127.304 26.344L127.292 26.056C127.644 26.184 127.944 26.364 128.192 26.596C128.448 26.828 128.644 27.1 128.78 27.412C128.916 27.716 128.984 28.044 128.984 28.396C128.984 29.196 128.728 29.832 128.216 30.304C127.712 30.768 127.024 31 126.152 31H122.384ZM123.344 30.1H126.152C126.72 30.1 127.172 29.952 127.508 29.656C127.852 29.352 128.024 28.936 128.024 28.408C128.024 27.888 127.852 27.476 127.508 27.172C127.172 26.86 126.72 26.704 126.152 26.704H123.344V30.1ZM123.344 25.84H126.068C126.548 25.84 126.932 25.7 127.22 25.42C127.516 25.14 127.664 24.78 127.664 24.34C127.664 23.892 127.516 23.552 127.22 23.32C126.932 23.08 126.548 22.96 126.068 22.96H123.344V25.84ZM130.704 31V22.06H131.664V30.1H135.624V31H130.704ZM137.079 31V22.06H142.839V22.96H138.039V26.068H142.599V26.968H138.039V30.1H142.839V31H137.079ZM150.678 31.144C150.054 31.144 149.47 31.032 148.926 30.808C148.39 30.576 147.918 30.256 147.51 29.848C147.102 29.432 146.782 28.944 146.55 28.384C146.318 27.816 146.202 27.196 146.202 26.524C146.202 25.852 146.318 25.236 146.55 24.676C146.782 24.108 147.102 23.62 147.51 23.212C147.918 22.796 148.39 22.476 148.926 22.252C149.47 22.028 150.054 21.916 150.678 21.916C151.302 21.916 151.882 22.032 152.418 22.264C152.962 22.488 153.438 22.808 153.846 23.224C154.254 23.632 154.574 24.116 154.806 24.676C155.038 25.236 155.154 25.852 155.154 26.524C155.154 27.196 155.038 27.816 154.806 28.384C154.574 28.944 154.254 29.432 153.846 29.848C153.438 30.256 152.962 30.576 152.418 30.808C151.882 31.032 151.302 31.144 150.678 31.144ZM150.678 30.244C151.198 30.244 151.67 30.148 152.094 29.956C152.526 29.764 152.898 29.496 153.21 29.152C153.522 28.808 153.762 28.412 153.93 27.964C154.106 27.516 154.194 27.036 154.194 26.524C154.194 26.02 154.106 25.544 153.93 25.096C153.762 24.648 153.522 24.252 153.21 23.908C152.898 23.564 152.526 23.296 152.094 23.104C151.67 22.912 151.198 22.816 150.678 22.816C150.158 22.816 149.682 22.912 149.25 23.104C148.826 23.296 148.458 23.564 148.146 23.908C147.834 24.252 147.59 24.648 147.414 25.096C147.246 25.544 147.162 26.02 147.162 26.524C147.162 27.036 147.246 27.516 147.414 27.964C147.59 28.412 147.834 28.808 148.146 29.152C148.458 29.496 148.83 29.764 149.262 29.956C149.694 30.148 150.166 30.244 150.678 30.244ZM157.001 31V22.06H157.841L163.085 29.584H162.761V22.06H163.721V31H162.881L157.637 23.428H157.961V31H157.001ZM83.54 53V38.1H88.96C89.96 38.1 90.84 38.2867 91.6 38.66C92.3733 39.02 92.9733 39.5533 93.4 40.26C93.8267 40.9533 94.04 41.7867 94.04 42.76C94.04 43.72 93.82 44.5467 93.38 45.24C92.9533 45.9333 92.36 46.4667 91.6 46.84C90.84 47.2133 89.96 47.4 88.96 47.4H85.9V53H83.54ZM85.9 45.3H89.02C89.5533 45.3 90.02 45.1933 90.42 44.98C90.82 44.7667 91.1333 44.4733 91.36 44.1C91.5867 43.7133 91.7 43.26 91.7 42.74C91.7 42.22 91.5867 41.7733 91.36 41.4C91.1333 41.0133 90.82 40.72 90.42 40.52C90.02 40.3067 89.5533 40.2 89.02 40.2H85.9V45.3ZM96.2497 53V37.86H98.5097V53H96.2497ZM104.392 53.24C103.659 53.24 103.012 53.1133 102.452 52.86C101.905 52.5933 101.479 52.2333 101.172 51.78C100.865 51.3133 100.712 50.7667 100.712 50.14C100.712 49.5533 100.839 49.0267 101.092 48.56C101.359 48.0933 101.765 47.7 102.312 47.38C102.859 47.06 103.545 46.8333 104.372 46.7L108.132 46.08V47.86L104.812 48.44C104.212 48.5467 103.772 48.74 103.492 49.02C103.212 49.2867 103.072 49.6333 103.072 50.06C103.072 50.4733 103.225 50.8133 103.532 51.08C103.852 51.3333 104.259 51.46 104.752 51.46C105.365 51.46 105.899 51.3267 106.352 51.06C106.819 50.7933 107.179 50.44 107.432 50C107.685 49.5467 107.812 49.0467 107.812 48.5V45.72C107.812 45.1867 107.612 44.7533 107.212 44.42C106.825 44.0733 106.305 43.9 105.652 43.9C105.052 43.9 104.525 44.06 104.072 44.38C103.632 44.6867 103.305 45.0867 103.092 45.58L101.212 44.64C101.412 44.1067 101.739 43.64 102.192 43.24C102.645 42.8267 103.172 42.5067 103.772 42.28C104.385 42.0533 105.032 41.94 105.712 41.94C106.565 41.94 107.319 42.1 107.972 42.42C108.639 42.74 109.152 43.1867 109.512 43.76C109.885 44.32 110.072 44.9733 110.072 45.72V53H107.912V51.04L108.372 51.1C108.119 51.54 107.792 51.92 107.392 52.24C107.005 52.56 106.559 52.8067 106.052 52.98C105.559 53.1533 105.005 53.24 104.392 53.24ZM113.675 57.42C113.408 57.42 113.141 57.3933 112.875 57.34C112.621 57.3 112.388 57.2333 112.175 57.14V55.2C112.335 55.24 112.528 55.2733 112.755 55.3C112.981 55.34 113.201 55.36 113.415 55.36C114.041 55.36 114.501 55.22 114.795 54.94C115.101 54.6733 115.375 54.2533 115.615 53.68L116.335 52.04L116.295 53.94L111.615 42.18H114.035L117.495 51.2H116.675L120.115 42.18H122.555L117.775 54.18C117.521 54.82 117.201 55.38 116.815 55.86C116.441 56.3533 115.995 56.7333 115.475 57C114.968 57.28 114.368 57.42 113.675 57.42ZM133.037 53.24C132.104 53.24 131.237 53.0667 130.437 52.72C129.637 52.36 128.957 51.8733 128.397 51.26C127.837 50.6467 127.424 49.94 127.157 49.14L129.157 48.3C129.517 49.22 130.044 49.9267 130.737 50.42C131.431 50.9133 132.231 51.16 133.137 51.16C133.671 51.16 134.137 51.08 134.537 50.92C134.937 50.7467 135.244 50.5067 135.457 50.2C135.684 49.8933 135.797 49.54 135.797 49.14C135.797 48.5933 135.644 48.16 135.337 47.84C135.031 47.52 134.577 47.2667 133.977 47.08L131.177 46.2C130.057 45.8533 129.204 45.3267 128.617 44.62C128.031 43.9 127.737 43.06 127.737 42.1C127.737 41.26 127.944 40.5267 128.357 39.9C128.771 39.26 129.337 38.76 130.057 38.4C130.791 38.04 131.624 37.86 132.557 37.86C133.451 37.86 134.264 38.02 134.997 38.34C135.731 38.6467 136.357 39.0733 136.877 39.62C137.411 40.1667 137.797 40.8 138.037 41.52L136.077 42.38C135.784 41.5933 135.324 40.9867 134.697 40.56C134.084 40.1333 133.371 39.92 132.557 39.92C132.064 39.92 131.631 40.0067 131.257 40.18C130.884 40.34 130.591 40.58 130.377 40.9C130.177 41.2067 130.077 41.5667 130.077 41.98C130.077 42.46 130.231 42.8867 130.537 43.26C130.844 43.6333 131.311 43.9133 131.937 44.1L134.537 44.92C135.724 45.28 136.617 45.8 137.217 46.48C137.817 47.1467 138.117 47.98 138.117 48.98C138.117 49.8067 137.897 50.54 137.457 51.18C137.031 51.82 136.437 52.3267 135.677 52.7C134.917 53.06 134.037 53.24 133.037 53.24ZM145.227 53.12C144.093 53.12 143.213 52.8 142.587 52.16C141.96 51.52 141.647 50.62 141.647 49.46V44.22H139.747V42.18H140.047C140.553 42.18 140.947 42.0333 141.227 41.74C141.507 41.4467 141.647 41.0467 141.647 40.54V39.7H143.907V42.18H146.367V44.22H143.907V49.36C143.907 49.7333 143.967 50.0533 144.087 50.32C144.207 50.5733 144.4 50.7733 144.667 50.92C144.933 51.0533 145.28 51.12 145.707 51.12C145.813 51.12 145.933 51.1133 146.067 51.1C146.2 51.0867 146.327 51.0733 146.447 51.06V53C146.26 53.0267 146.053 53.0533 145.827 53.08C145.6 53.1067 145.4 53.12 145.227 53.12ZM153.677 53.24C152.637 53.24 151.683 52.9933 150.817 52.5C149.963 52.0067 149.283 51.3333 148.777 50.48C148.27 49.6267 148.017 48.66 148.017 47.58C148.017 46.4867 148.27 45.52 148.777 44.68C149.283 43.8267 149.963 43.16 150.817 42.68C151.67 42.1867 152.623 41.94 153.677 41.94C154.743 41.94 155.697 42.1867 156.537 42.68C157.39 43.16 158.063 43.8267 158.557 44.68C159.063 45.52 159.317 46.4867 159.317 47.58C159.317 48.6733 159.063 49.6467 158.557 50.5C158.05 51.3533 157.37 52.0267 156.517 52.52C155.663 53 154.717 53.24 153.677 53.24ZM153.677 51.14C154.317 51.14 154.883 50.9867 155.377 50.68C155.87 50.3733 156.257 49.9533 156.537 49.42C156.83 48.8733 156.977 48.26 156.977 47.58C156.977 46.9 156.83 46.2933 156.537 45.76C156.257 45.2267 155.87 44.8067 155.377 44.5C154.883 44.1933 154.317 44.04 153.677 44.04C153.05 44.04 152.483 44.1933 151.977 44.5C151.483 44.8067 151.09 45.2267 150.797 45.76C150.517 46.2933 150.377 46.9 150.377 47.58C150.377 48.26 150.517 48.8733 150.797 49.42C151.09 49.9533 151.483 50.3733 151.977 50.68C152.483 50.9867 153.05 51.14 153.677 51.14ZM161.523 53V42.18H163.683V44.36L163.483 44.04C163.723 43.3333 164.11 42.8267 164.643 42.52C165.176 42.2 165.816 42.04 166.563 42.04H167.223V44.1H166.283C165.536 44.1 164.93 44.3333 164.463 44.8C164.01 45.2533 163.783 45.9067 163.783 46.76V53H161.523ZM173.849 53.24C172.769 53.24 171.809 52.9933 170.969 52.5C170.143 51.9933 169.496 51.3133 169.029 50.46C168.563 49.5933 168.329 48.6267 168.329 47.56C168.329 46.4667 168.563 45.5 169.029 44.66C169.509 43.82 170.149 43.16 170.949 42.68C171.749 42.1867 172.656 41.94 173.669 41.94C174.483 41.94 175.209 42.08 175.849 42.36C176.489 42.64 177.029 43.0267 177.469 43.52C177.909 44 178.243 44.5533 178.469 45.18C178.709 45.8067 178.829 46.4733 178.829 47.18C178.829 47.3533 178.823 47.5333 178.809 47.72C178.796 47.9067 178.769 48.08 178.729 48.24H170.109V46.44H177.449L176.369 47.26C176.503 46.6067 176.456 46.0267 176.229 45.52C176.016 45 175.683 44.5933 175.229 44.3C174.789 43.9933 174.269 43.84 173.669 43.84C173.069 43.84 172.536 43.9933 172.069 44.3C171.603 44.5933 171.243 45.02 170.989 45.58C170.736 46.1267 170.636 46.7933 170.689 47.58C170.623 48.3133 170.723 48.9533 170.989 49.5C171.269 50.0467 171.656 50.4733 172.149 50.78C172.656 51.0867 173.229 51.24 173.869 51.24C174.523 51.24 175.076 51.0933 175.529 50.8C175.996 50.5067 176.363 50.1267 176.629 49.66L178.469 50.56C178.256 51.0667 177.923 51.5267 177.469 51.94C177.029 52.34 176.496 52.66 175.869 52.9C175.256 53.1267 174.583 53.24 173.849 53.24Z" fill="#1A2E35"/>
</g>
<defs>
<filter id="filter0_d_148_973" x="0" y="0" width="221" height="85" filterUnits="userSpaceOnUse" color-interpolation-filters="sRGB">
<feFlood flood-opacity="0" result="BackgroundImageFix"/>
<feColorMatrix in="SourceAlpha" type="matrix" values="0 0 0 0 0 0 0 0 0 0 0 0 0 0 0 0 0 0 127 0" result="hardAlpha"/>
<feOffset dx="1" dy="4"/>
<feGaussianBlur stdDeviation="5"/>
<feComposite in2="hardAlpha" operator="out"/>
<feColorMatrix type="matrix" values="0 0 0 0 0.101961 0 0 0 0 0.180392 0 0 0 0 0.207843 0 0 0 0.01 0"/>
<feBlend mode="normal" in2="BackgroundImageFix" result="effect1_dropShadow_148_973"/>
<feBlend mode="normal" in="SourceGraphic" in2="effect1_dropShadow_148_973" result="shape"/>
</filter>
</defs>
</svg>
