<svg width="167" height="62" viewBox="0 0 167 62" fill="none" xmlns="http://www.w3.org/2000/svg">
<rect width="167" height="61.5263" rx="3.82151" fill="#514BDC"/>
<path d="M23.1885 21.8132L22.5893 20.8357L22.5821 20.8403L23.1885 21.8132ZM35.9693 13.979L35.3706 13.0013L35.3702 13.0015L35.9693 13.979ZM40.4609 13.979L41.0592 13.001L41.0536 12.9976L40.4609 13.979ZM53.2417 21.7988L52.6434 22.7768L52.6443 22.7773L53.2417 21.7988ZM53.5011 46.8098C53.5011 47.443 54.0144 47.9563 54.6476 47.9563C55.2808 47.9563 55.794 47.443 55.794 46.8098H53.5011ZM22.929 47.5272V24.1977H20.6361V47.5272H22.929ZM22.929 24.1977C22.929 23.7471 23.2277 23.1397 23.7949 22.7862L22.5821 20.8403C21.3964 21.5792 20.6361 22.8946 20.6361 24.1977H22.929ZM23.7876 22.7907L36.5684 14.9564L35.3702 13.0015L22.5893 20.8358L23.7876 22.7907ZM36.568 14.9567C37.5127 14.3782 38.8972 14.3739 39.8682 14.9603L41.0536 12.9976C39.3588 11.974 37.0551 11.9698 35.3706 13.0013L36.568 14.9567ZM39.8625 14.9569L52.6434 22.7768L53.84 20.8209L41.0592 13.0011L39.8625 14.9569ZM52.6443 22.7773C53.2628 23.155 53.5011 23.6489 53.5011 24.07H55.794C55.794 22.7086 55.0099 21.5352 53.8391 20.8203L52.6443 22.7773ZM53.5011 24.07V46.8098H55.794V24.07H53.5011Z" fill="white"/>
<path d="M21.7826 46.4924L44.4416 46.4924" stroke="white" stroke-width="2.29291"/>
<circle cx="37.9055" cy="27.7551" r="4.51831" stroke="white" stroke-width="2.29291"/>
<path d="M29.6261 42.1347V35.1627C29.6261 34.341 29.6261 33.9302 29.8814 33.6749C30.1366 33.4197 30.5474 33.4197 31.3691 33.4197H45.3131C46.1348 33.4197 46.5456 33.4197 46.8009 33.6749C47.0561 33.9302 47.0561 34.341 47.0561 35.1627V44.7492C47.0561 45.5709 47.0561 45.9817 46.8009 46.237C46.5456 46.4922 46.1348 46.4922 45.3131 46.4922H42.1757" stroke="white" stroke-width="2.29291" stroke-linecap="round"/>
<path d="M75.0163 39.719C74.01 39.719 73.0737 39.5343 72.2075 39.1649C71.354 38.7955 70.6024 38.286 69.9528 37.6363C69.3159 36.9739 68.8191 36.1969 68.4624 35.3052C68.1057 34.4135 67.9274 33.4327 67.9274 32.3626C67.9274 31.3053 68.0993 30.3309 68.4433 29.4392C68.8 28.5347 69.2968 27.7577 69.9337 27.1081C70.5706 26.4457 71.3158 25.9361 72.1693 25.5794C73.0227 25.21 73.959 25.0253 74.9781 25.0253C75.9844 25.0253 76.8825 25.1973 77.6722 25.5412C78.4747 25.8852 79.1499 26.3374 79.6976 26.8979C80.2454 27.4456 80.6403 28.0443 80.8823 28.694L78.876 29.6685C78.583 28.8914 78.099 28.2672 77.4238 27.7959C76.7487 27.3119 75.9334 27.0698 74.9781 27.0698C74.0354 27.0698 73.2011 27.2928 72.475 27.7386C71.7489 28.1844 71.182 28.8023 70.7744 29.592C70.3795 30.3818 70.1821 31.3053 70.1821 32.3626C70.1821 33.4199 70.3859 34.3498 70.7935 35.1523C71.2139 35.9421 71.7871 36.5599 72.5132 37.0058C73.2393 37.4389 74.0736 37.6554 75.0163 37.6554C75.8061 37.6554 76.5258 37.4962 77.1754 37.1777C77.8378 36.8465 78.3665 36.388 78.7614 35.802C79.1563 35.2033 79.3537 34.509 79.3537 33.7193V32.7448L80.3664 33.6619H74.9781V31.7512H81.5893V33.0887C81.5893 34.1333 81.4109 35.0695 81.0543 35.8975C80.6976 36.7128 80.2135 37.407 79.6021 37.9802C78.9907 38.5535 78.29 38.9866 77.5003 39.2796C76.7105 39.5725 75.8825 39.719 75.0163 39.719ZM87.3689 39.719C86.5918 39.719 85.9103 39.5471 85.3244 39.2031C84.7384 38.8465 84.2798 38.356 83.9486 37.7319C83.6302 37.0949 83.4709 36.3625 83.4709 35.5345V29.1526H85.6301V35.3434C85.6301 35.8147 85.7256 36.2287 85.9167 36.5854C86.1078 36.9421 86.3753 37.2223 86.7192 37.4261C87.0631 37.6172 87.458 37.7127 87.9039 37.7127C88.3625 37.7127 88.7637 37.6108 89.1077 37.407C89.4516 37.2032 89.7191 36.9166 89.9102 36.5472C90.114 36.1778 90.2159 35.7447 90.2159 35.2479V29.1526H92.3559V39.4897H90.3114V37.4643L90.5407 37.7319C90.2987 38.3688 89.8974 38.8592 89.3369 39.2031C88.7765 39.5471 88.1204 39.719 87.3689 39.719ZM99.7303 39.719C98.6984 39.719 97.7813 39.4834 96.9788 39.0121C96.189 38.528 95.5712 37.8783 95.1253 37.0631C94.6795 36.2351 94.4566 35.3116 94.4566 34.2925C94.4566 33.2479 94.6795 32.3244 95.1253 31.5219C95.5839 30.7194 96.1954 30.0888 96.9597 29.6302C97.724 29.1589 98.5902 28.9233 99.5583 28.9233C100.335 28.9233 101.03 29.057 101.641 29.3245C102.252 29.592 102.768 29.9614 103.189 30.4328C103.609 30.8913 103.928 31.42 104.144 32.0187C104.373 32.6174 104.488 33.2543 104.488 33.9294C104.488 34.095 104.482 34.267 104.469 34.4454C104.456 34.6237 104.431 34.7893 104.393 34.9421H96.1571V33.2225H103.17L102.138 34.0059C102.265 33.3817 102.221 32.8276 102.004 32.3435C101.8 31.8467 101.482 31.4582 101.049 31.178C100.628 30.885 100.132 30.7385 99.5583 30.7385C98.9851 30.7385 98.4755 30.885 98.0297 31.178C97.5838 31.4582 97.2399 31.8658 96.9979 32.4008C96.7558 32.9231 96.6603 33.56 96.7113 34.3116C96.6476 35.0122 96.7431 35.6237 96.9979 36.1459C97.2654 36.6682 97.6348 37.0758 98.1061 37.3688C98.5902 37.6618 99.1379 37.8083 99.7494 37.8083C100.374 37.8083 100.902 37.6682 101.335 37.3879C101.781 37.1077 102.131 36.7446 102.386 36.2988L104.144 37.1586C103.94 37.6427 103.622 38.0822 103.189 38.477C102.768 38.8592 102.259 39.1649 101.66 39.3942C101.074 39.6108 100.431 39.719 99.7303 39.719ZM110.417 39.719C109.359 39.719 108.43 39.4579 107.627 38.9356C106.837 38.4134 106.283 37.7127 105.965 36.8338L107.627 36.0504C107.907 36.6364 108.289 37.1013 108.774 37.4452C109.27 37.7892 109.818 37.9611 110.417 37.9611C110.926 37.9611 111.34 37.8465 111.659 37.6172C111.977 37.3879 112.136 37.0758 112.136 36.6809C112.136 36.4262 112.066 36.2224 111.926 36.0695C111.786 35.9039 111.608 35.7701 111.391 35.6682C111.187 35.5663 110.977 35.4899 110.761 35.4389L109.137 34.9804C108.245 34.7256 107.576 34.3434 107.13 33.8339C106.697 33.3116 106.481 32.7066 106.481 32.0187C106.481 31.3945 106.64 30.8531 106.958 30.3946C107.277 29.9232 107.716 29.5602 108.277 29.3054C108.837 29.0507 109.468 28.9233 110.168 28.9233C111.111 28.9233 111.952 29.1589 112.691 29.6302C113.429 30.0888 113.952 30.7321 114.257 31.5601L112.595 32.3435C112.391 31.8467 112.066 31.4518 111.621 31.1589C111.187 30.8659 110.697 30.7194 110.149 30.7194C109.678 30.7194 109.302 30.834 109.022 31.0633C108.742 31.2799 108.602 31.5665 108.602 31.9232C108.602 32.1652 108.665 32.369 108.793 32.5346C108.92 32.6875 109.086 32.8148 109.289 32.9167C109.493 33.0059 109.703 33.0823 109.92 33.146L111.601 33.6428C112.455 33.8849 113.111 34.267 113.569 34.7893C114.028 35.2988 114.257 35.9103 114.257 36.6236C114.257 37.2351 114.092 37.7764 113.761 38.2478C113.442 38.7063 112.996 39.0694 112.423 39.3369C111.85 39.5917 111.181 39.719 110.417 39.719ZM120.844 39.6044C119.761 39.6044 118.921 39.2987 118.322 38.6872C117.723 38.0758 117.424 37.2159 117.424 36.1077V31.1015H115.609V29.1526H115.895C116.379 29.1526 116.755 29.0124 117.023 28.7322C117.29 28.4519 117.424 28.0698 117.424 27.5857V26.7832H119.583V29.1526H121.933V31.1015H119.583V36.0122C119.583 36.3688 119.64 36.6746 119.755 36.9293C119.87 37.1714 120.054 37.3624 120.309 37.5026C120.564 37.6299 120.895 37.6936 121.303 37.6936C121.405 37.6936 121.519 37.6873 121.647 37.6745C121.774 37.6618 121.895 37.6491 122.01 37.6363V39.4897C121.831 39.5152 121.634 39.5407 121.417 39.5662C121.201 39.5917 121.01 39.6044 120.844 39.6044ZM128.917 39.719C127.924 39.719 127.013 39.4834 126.185 39.0121C125.37 38.5407 124.72 37.8975 124.236 37.0822C123.752 36.2669 123.51 35.3434 123.51 34.3116C123.51 33.2671 123.752 32.3435 124.236 31.541C124.72 30.7257 125.37 30.0888 126.185 29.6302C127 29.1589 127.911 28.9233 128.917 28.9233C129.936 28.9233 130.847 29.1589 131.65 29.6302C132.465 30.0888 133.108 30.7257 133.579 31.541C134.063 32.3435 134.306 33.2671 134.306 34.3116C134.306 35.3561 134.063 36.286 133.579 37.1013C133.095 37.9166 132.446 38.5598 131.63 39.0312C130.815 39.4897 129.911 39.719 128.917 39.719ZM128.917 37.7127C129.529 37.7127 130.07 37.5663 130.541 37.2733C131.013 36.9803 131.382 36.579 131.65 36.0695C131.93 35.5472 132.07 34.9613 132.07 34.3116C132.07 33.6619 131.93 33.0823 131.65 32.5728C131.382 32.0633 131.013 31.662 130.541 31.369C130.07 31.0761 129.529 30.9296 128.917 30.9296C128.318 30.9296 127.777 31.0761 127.293 31.369C126.822 31.662 126.446 32.0633 126.166 32.5728C125.898 33.0823 125.764 33.6619 125.764 34.3116C125.764 34.9613 125.898 35.5472 126.166 36.0695C126.446 36.579 126.822 36.9803 127.293 37.2733C127.777 37.5663 128.318 37.7127 128.917 37.7127ZM136.413 43.3113V29.1526H138.477V31.2926L138.229 30.7958C138.611 30.2098 139.12 29.7513 139.757 29.4201C140.394 29.0889 141.12 28.9233 141.936 28.9233C142.916 28.9233 143.795 29.1589 144.572 29.6302C145.362 30.1016 145.98 30.7449 146.426 31.5601C146.884 32.3754 147.114 33.2925 147.114 34.3116C147.114 35.3307 146.884 36.2478 146.426 37.0631C145.98 37.8783 145.369 38.528 144.592 39.0121C143.814 39.4834 142.929 39.719 141.936 39.719C141.133 39.719 140.401 39.5534 139.738 39.2222C139.089 38.891 138.585 38.4134 138.229 37.7892L138.573 37.3879V43.3113H136.413ZM141.725 37.7127C142.337 37.7127 142.878 37.5663 143.35 37.2733C143.821 36.9803 144.19 36.579 144.458 36.0695C144.738 35.5472 144.878 34.9613 144.878 34.3116C144.878 33.6619 144.738 33.0823 144.458 32.5728C144.19 32.0633 143.821 31.662 143.35 31.369C142.878 31.0761 142.337 30.9296 141.725 30.9296C141.127 30.9296 140.585 31.0761 140.101 31.369C139.63 31.662 139.254 32.0633 138.974 32.5728C138.706 33.0823 138.573 33.6619 138.573 34.3116C138.573 34.9613 138.706 35.5472 138.974 36.0695C139.254 36.579 139.63 36.9803 140.101 37.2733C140.585 37.5663 141.127 37.7127 141.725 37.7127Z" fill="white"/>
<path d="M35.54 29.8079C37.3378 31.6056 36.2891 33.8341 35.54 34.7236" stroke="#514BDC" stroke-width="0.421346" stroke-linecap="round"/>
<path d="M39.9099 34.864C38.1122 33.0663 39.1609 30.8378 39.9099 29.9483" stroke="#514BDC" stroke-width="0.421346"/>
<rect x="36.3893" y="30.51" width="2.52808" height="4.21346" fill="#514BDC"/>
<rect x="35.9222" y="33.6294" width="3.43936" height="1.5286" rx="0.382151" fill="#514BDC"/>
<rect x="36.3043" y="30.1899" width="3.05721" height="1.14645" rx="0.573227" fill="#514BDC"/>
</svg>
