<svg width="221" height="85" viewBox="0 0 221 85" fill="none" xmlns="http://www.w3.org/2000/svg">
<g filter="url(#filter0_d_148_969)">
<rect x="9" y="6" width="201" height="65" rx="10" fill="white" shape-rendering="crispEdges"/>
<path d="M64.5479 53.335C62.7921 55.0371 60.875 54.7683 59.0296 53.9621C57.0767 53.1379 55.285 53.1021 53.2246 53.9621C50.6446 55.0729 49.2829 54.7504 47.7421 53.335C38.9988 44.3229 40.2888 30.5988 50.2146 30.0971C52.6333 30.2225 54.3175 31.4229 55.7329 31.5304C57.8471 31.1004 59.8717 29.8642 62.1292 30.0254C64.8346 30.2404 66.8771 31.3154 68.2208 33.2504C62.6308 36.6008 63.9567 43.9646 69.0808 46.025C68.0596 48.7125 66.7338 51.3821 64.53 53.3529L64.5479 53.335ZM55.5538 29.9896C55.285 25.9942 58.5279 22.6975 62.2546 22.375C62.7742 26.9975 58.0621 30.4375 55.5538 29.9896Z" fill="#514BDC"/>
<path d="M87.132 31L90.396 22.06H91.428L94.692 31H93.684L92.916 28.816H88.92L88.14 31H87.132ZM89.232 27.916H92.58L90.768 22.78H91.056L89.232 27.916ZM97.5213 31L94.2453 22.06H95.2413L98.1213 30.148H97.9293L100.797 22.06H101.805L98.5293 31H97.5213ZM101.359 31L104.623 22.06H105.655L108.919 31H107.911L107.143 28.816H103.147L102.367 31H101.359ZM103.459 27.916H106.807L104.995 22.78H105.283L103.459 27.916ZM110.111 31V22.06H111.071V31H110.111ZM113.181 31V22.06H114.141V30.1H118.101V31H113.181ZM118.632 31L121.896 22.06H122.928L126.192 31H125.184L124.416 28.816H120.42L119.64 31H118.632ZM120.732 27.916H124.08L122.268 22.78H122.556L120.732 27.916ZM127.384 31V22.06H131.14C131.644 22.06 132.08 22.156 132.448 22.348C132.824 22.532 133.112 22.792 133.312 23.128C133.52 23.464 133.624 23.856 133.624 24.304C133.624 24.768 133.508 25.18 133.276 25.54C133.052 25.892 132.728 26.16 132.304 26.344L132.292 26.056C132.644 26.184 132.944 26.364 133.192 26.596C133.448 26.828 133.644 27.1 133.78 27.412C133.916 27.716 133.984 28.044 133.984 28.396C133.984 29.196 133.728 29.832 133.216 30.304C132.712 30.768 132.024 31 131.152 31H127.384ZM128.344 30.1H131.152C131.72 30.1 132.172 29.952 132.508 29.656C132.852 29.352 133.024 28.936 133.024 28.408C133.024 27.888 132.852 27.476 132.508 27.172C132.172 26.86 131.72 26.704 131.152 26.704H128.344V30.1ZM128.344 25.84H131.068C131.548 25.84 131.932 25.7 132.22 25.42C132.516 25.14 132.664 24.78 132.664 24.34C132.664 23.892 132.516 23.552 132.22 23.32C131.932 23.08 131.548 22.96 131.068 22.96H128.344V25.84ZM135.704 31V22.06H136.664V30.1H140.624V31H135.704ZM142.079 31V22.06H147.839V22.96H143.039V26.068H147.599V26.968H143.039V30.1H147.839V31H142.079ZM155.678 31.144C155.054 31.144 154.47 31.032 153.926 30.808C153.39 30.576 152.918 30.256 152.51 29.848C152.102 29.432 151.782 28.944 151.55 28.384C151.318 27.816 151.202 27.196 151.202 26.524C151.202 25.852 151.318 25.236 151.55 24.676C151.782 24.108 152.102 23.62 152.51 23.212C152.918 22.796 153.39 22.476 153.926 22.252C154.47 22.028 155.054 21.916 155.678 21.916C156.302 21.916 156.882 22.032 157.418 22.264C157.962 22.488 158.438 22.808 158.846 23.224C159.254 23.632 159.574 24.116 159.806 24.676C160.038 25.236 160.154 25.852 160.154 26.524C160.154 27.196 160.038 27.816 159.806 28.384C159.574 28.944 159.254 29.432 158.846 29.848C158.438 30.256 157.962 30.576 157.418 30.808C156.882 31.032 156.302 31.144 155.678 31.144ZM155.678 30.244C156.198 30.244 156.67 30.148 157.094 29.956C157.526 29.764 157.898 29.496 158.21 29.152C158.522 28.808 158.762 28.412 158.93 27.964C159.106 27.516 159.194 27.036 159.194 26.524C159.194 26.02 159.106 25.544 158.93 25.096C158.762 24.648 158.522 24.252 158.21 23.908C157.898 23.564 157.526 23.296 157.094 23.104C156.67 22.912 156.198 22.816 155.678 22.816C155.158 22.816 154.682 22.912 154.25 23.104C153.826 23.296 153.458 23.564 153.146 23.908C152.834 24.252 152.59 24.648 152.414 25.096C152.246 25.544 152.162 26.02 152.162 26.524C152.162 27.036 152.246 27.516 152.414 27.964C152.59 28.412 152.834 28.808 153.146 29.152C153.458 29.496 153.83 29.764 154.262 29.956C154.694 30.148 155.166 30.244 155.678 30.244ZM162.001 31V22.06H162.841L168.085 29.584H167.761V22.06H168.721V31H167.881L162.637 23.428H162.961V31H162.001ZM87.22 53L92.46 38.1H95.38L100.62 53H98.1L96.96 49.66H90.9L89.74 53H87.22ZM91.58 47.56H96.24L93.6 39.76H94.26L91.58 47.56ZM102.168 57V42.18H104.328V44.42L104.068 43.9C104.468 43.2867 105.001 42.8067 105.668 42.46C106.334 42.1133 107.094 41.94 107.948 41.94C108.974 41.94 109.894 42.1867 110.708 42.68C111.534 43.1733 112.181 43.8467 112.648 44.7C113.128 45.5533 113.368 46.5133 113.368 47.58C113.368 48.6467 113.128 49.6067 112.648 50.46C112.181 51.3133 111.541 51.9933 110.728 52.5C109.914 52.9933 108.988 53.24 107.948 53.24C107.108 53.24 106.341 53.0667 105.648 52.72C104.968 52.3733 104.441 51.8733 104.068 51.22L104.428 50.8V57H102.168ZM107.728 51.14C108.368 51.14 108.934 50.9867 109.428 50.68C109.921 50.3733 110.308 49.9533 110.588 49.42C110.881 48.8733 111.028 48.26 111.028 47.58C111.028 46.9 110.881 46.2933 110.588 45.76C110.308 45.2267 109.921 44.8067 109.428 44.5C108.934 44.1933 108.368 44.04 107.728 44.04C107.101 44.04 106.534 44.1933 106.028 44.5C105.534 44.8067 105.141 45.2267 104.848 45.76C104.568 46.2933 104.428 46.9 104.428 47.58C104.428 48.26 104.568 48.8733 104.848 49.42C105.141 49.9533 105.534 50.3733 106.028 50.68C106.534 50.9867 107.101 51.14 107.728 51.14ZM115.566 57V42.18H117.726V44.42L117.466 43.9C117.866 43.2867 118.399 42.8067 119.066 42.46C119.733 42.1133 120.493 41.94 121.346 41.94C122.373 41.94 123.293 42.1867 124.106 42.68C124.933 43.1733 125.579 43.8467 126.046 44.7C126.526 45.5533 126.766 46.5133 126.766 47.58C126.766 48.6467 126.526 49.6067 126.046 50.46C125.579 51.3133 124.939 51.9933 124.126 52.5C123.313 52.9933 122.386 53.24 121.346 53.24C120.506 53.24 119.739 53.0667 119.046 52.72C118.366 52.3733 117.839 51.8733 117.466 51.22L117.826 50.8V57H115.566ZM121.126 51.14C121.766 51.14 122.333 50.9867 122.826 50.68C123.319 50.3733 123.706 49.9533 123.986 49.42C124.279 48.8733 124.426 48.26 124.426 47.58C124.426 46.9 124.279 46.2933 123.986 45.76C123.706 45.2267 123.319 44.8067 122.826 44.5C122.333 44.1933 121.766 44.04 121.126 44.04C120.499 44.04 119.933 44.1933 119.426 44.5C118.933 44.8067 118.539 45.2267 118.246 45.76C117.966 46.2933 117.826 46.9 117.826 47.58C117.826 48.26 117.966 48.8733 118.246 49.42C118.539 49.9533 118.933 50.3733 119.426 50.68C119.933 50.9867 120.499 51.14 121.126 51.14ZM137.901 53.24C136.967 53.24 136.101 53.0667 135.301 52.72C134.501 52.36 133.821 51.8733 133.261 51.26C132.701 50.6467 132.287 49.94 132.021 49.14L134.021 48.3C134.381 49.22 134.907 49.9267 135.601 50.42C136.294 50.9133 137.094 51.16 138.001 51.16C138.534 51.16 139.001 51.08 139.401 50.92C139.801 50.7467 140.107 50.5067 140.321 50.2C140.547 49.8933 140.661 49.54 140.661 49.14C140.661 48.5933 140.507 48.16 140.201 47.84C139.894 47.52 139.441 47.2667 138.841 47.08L136.041 46.2C134.921 45.8533 134.067 45.3267 133.481 44.62C132.894 43.9 132.601 43.06 132.601 42.1C132.601 41.26 132.807 40.5267 133.221 39.9C133.634 39.26 134.201 38.76 134.921 38.4C135.654 38.04 136.487 37.86 137.421 37.86C138.314 37.86 139.127 38.02 139.861 38.34C140.594 38.6467 141.221 39.0733 141.741 39.62C142.274 40.1667 142.661 40.8 142.901 41.52L140.941 42.38C140.647 41.5933 140.187 40.9867 139.561 40.56C138.947 40.1333 138.234 39.92 137.421 39.92C136.927 39.92 136.494 40.0067 136.121 40.18C135.747 40.34 135.454 40.58 135.241 40.9C135.041 41.2067 134.941 41.5667 134.941 41.98C134.941 42.46 135.094 42.8867 135.401 43.26C135.707 43.6333 136.174 43.9133 136.801 44.1L139.401 44.92C140.587 45.28 141.481 45.8 142.081 46.48C142.681 47.1467 142.981 47.98 142.981 48.98C142.981 49.8067 142.761 50.54 142.321 51.18C141.894 51.82 141.301 52.3267 140.541 52.7C139.781 53.06 138.901 53.24 137.901 53.24ZM150.09 53.12C148.957 53.12 148.077 52.8 147.45 52.16C146.823 51.52 146.51 50.62 146.51 49.46V44.22H144.61V42.18H144.91C145.417 42.18 145.81 42.0333 146.09 41.74C146.37 41.4467 146.51 41.0467 146.51 40.54V39.7H148.77V42.18H151.23V44.22H148.77V49.36C148.77 49.7333 148.83 50.0533 148.95 50.32C149.07 50.5733 149.263 50.7733 149.53 50.92C149.797 51.0533 150.143 51.12 150.57 51.12C150.677 51.12 150.797 51.1133 150.93 51.1C151.063 51.0867 151.19 51.0733 151.31 51.06V53C151.123 53.0267 150.917 53.0533 150.69 53.08C150.463 53.1067 150.263 53.12 150.09 53.12ZM158.54 53.24C157.5 53.24 156.547 52.9933 155.68 52.5C154.827 52.0067 154.147 51.3333 153.64 50.48C153.133 49.6267 152.88 48.66 152.88 47.58C152.88 46.4867 153.133 45.52 153.64 44.68C154.147 43.8267 154.827 43.16 155.68 42.68C156.533 42.1867 157.487 41.94 158.54 41.94C159.607 41.94 160.56 42.1867 161.4 42.68C162.253 43.16 162.927 43.8267 163.42 44.68C163.927 45.52 164.18 46.4867 164.18 47.58C164.18 48.6733 163.927 49.6467 163.42 50.5C162.913 51.3533 162.233 52.0267 161.38 52.52C160.527 53 159.58 53.24 158.54 53.24ZM158.54 51.14C159.18 51.14 159.747 50.9867 160.24 50.68C160.733 50.3733 161.12 49.9533 161.4 49.42C161.693 48.8733 161.84 48.26 161.84 47.58C161.84 46.9 161.693 46.2933 161.4 45.76C161.12 45.2267 160.733 44.8067 160.24 44.5C159.747 44.1933 159.18 44.04 158.54 44.04C157.913 44.04 157.347 44.1933 156.84 44.5C156.347 44.8067 155.953 45.2267 155.66 45.76C155.38 46.2933 155.24 46.9 155.24 47.58C155.24 48.26 155.38 48.8733 155.66 49.42C155.953 49.9533 156.347 50.3733 156.84 50.68C157.347 50.9867 157.913 51.14 158.54 51.14ZM166.386 53V42.18H168.546V44.36L168.346 44.04C168.586 43.3333 168.973 42.8267 169.506 42.52C170.04 42.2 170.68 42.04 171.426 42.04H172.086V44.1H171.146C170.4 44.1 169.793 44.3333 169.326 44.8C168.873 45.2533 168.646 45.9067 168.646 46.76V53H166.386ZM178.713 53.24C177.633 53.24 176.673 52.9933 175.833 52.5C175.006 51.9933 174.359 51.3133 173.893 50.46C173.426 49.5933 173.193 48.6267 173.193 47.56C173.193 46.4667 173.426 45.5 173.893 44.66C174.373 43.82 175.013 43.16 175.813 42.68C176.613 42.1867 177.519 41.94 178.533 41.94C179.346 41.94 180.073 42.08 180.713 42.36C181.353 42.64 181.893 43.0267 182.333 43.52C182.773 44 183.106 44.5533 183.332 45.18C183.573 45.8067 183.693 46.4733 183.693 47.18C183.693 47.3533 183.686 47.5333 183.673 47.72C183.659 47.9067 183.633 48.08 183.593 48.24H174.973V46.44H182.312L181.233 47.26C181.366 46.6067 181.319 46.0267 181.093 45.52C180.879 45 180.546 44.5933 180.093 44.3C179.653 43.9933 179.133 43.84 178.533 43.84C177.933 43.84 177.399 43.9933 176.933 44.3C176.466 44.5933 176.106 45.02 175.853 45.58C175.599 46.1267 175.499 46.7933 175.553 47.58C175.486 48.3133 175.586 48.9533 175.853 49.5C176.133 50.0467 176.519 50.4733 177.013 50.78C177.519 51.0867 178.093 51.24 178.733 51.24C179.386 51.24 179.939 51.0933 180.393 50.8C180.859 50.5067 181.226 50.1267 181.493 49.66L183.332 50.56C183.119 51.0667 182.786 51.5267 182.333 51.94C181.893 52.34 181.359 52.66 180.733 52.9C180.119 53.1267 179.446 53.24 178.713 53.24Z" fill="#1A2E35"/>
</g>
<defs>
<filter id="filter0_d_148_969" x="0" y="0" width="221" height="85" filterUnits="userSpaceOnUse" color-interpolation-filters="sRGB">
<feFlood flood-opacity="0" result="BackgroundImageFix"/>
<feColorMatrix in="SourceAlpha" type="matrix" values="0 0 0 0 0 0 0 0 0 0 0 0 0 0 0 0 0 0 127 0" result="hardAlpha"/>
<feOffset dx="1" dy="4"/>
<feGaussianBlur stdDeviation="5"/>
<feComposite in2="hardAlpha" operator="out"/>
<feColorMatrix type="matrix" values="0 0 0 0 0.101961 0 0 0 0 0.180392 0 0 0 0 0.207843 0 0 0 0.01 0"/>
<feBlend mode="normal" in2="BackgroundImageFix" result="effect1_dropShadow_148_969"/>
<feBlend mode="normal" in="SourceGraphic" in2="effect1_dropShadow_148_969" result="shape"/>
</filter>
</defs>
</svg>
