<svg width="93" height="93" viewBox="0 0 93 93" fill="none" xmlns="http://www.w3.org/2000/svg">
<g filter="url(#filter0_d_168_943)">
<rect x="20" y="18" width="53" height="53" rx="5" fill="#514BDC"/>
<path d="M60 34.4662C60 33.4038 59.3429 32.6707 58.4929 32.208C57.675 31.7626 56.5821 31.5009 55.3893 31.3345C53 31 49.8268 31 46.6643 31H46.6071C46.3703 31 46.1432 31.0913 45.9758 31.2538C45.8084 31.4163 45.7143 31.6367 45.7143 31.8665C45.7143 32.0964 45.8084 32.3168 45.9758 32.4793C46.1432 32.6418 46.3703 32.7331 46.6071 32.7331C49.8375 32.7331 52.8875 32.7348 55.1339 33.0485C56.2643 33.2079 57.0929 33.4332 57.6179 33.7192C58.1107 33.9878 58.2143 34.2287 58.2143 34.4662C58.2143 34.7261 58.1018 34.9653 57.6536 35.2235C57.1679 35.5043 56.3964 35.7261 55.3446 35.8838C53.25 36.1958 50.4268 36.1992 47.5 36.1992H47.4429C44.5839 36.1992 41.6286 36.1992 39.3839 36.5337C38.2607 36.7018 37.2179 36.967 36.4339 37.4176C35.6125 37.8907 35 38.6238 35 39.6654C35 41.038 36.1536 41.8612 37.3607 42.3084C38.6179 42.7728 40.3018 42.9895 42.1429 42.9895V41.2564C40.4107 41.2564 38.9714 41.0484 37.9964 40.6879C36.9714 40.3101 36.7857 39.9046 36.7857 39.6654C36.7857 39.4055 36.8982 39.1663 37.3464 38.9081C37.8321 38.6273 38.6036 38.4055 39.6554 38.2478C41.75 37.9358 44.5732 37.9323 47.5 37.9323H47.5571C50.4161 37.9323 53.3714 37.9323 55.6161 37.5978C56.7393 37.4297 57.7821 37.1646 58.5661 36.714C59.3875 36.2408 60 35.5077 60 34.4662ZM46.6071 39.6637C45.8967 39.6637 45.2154 39.9376 44.7131 40.4251C44.2108 40.9126 43.9286 41.5738 43.9286 42.2633V49.615L41.5268 48.6099C41.0812 48.4237 40.6003 48.3307 40.1152 48.3367C39.6301 48.3427 39.1518 48.4476 38.7112 48.6448C38.2707 48.8419 37.8778 49.1267 37.5581 49.4808C37.2383 49.8348 36.9989 50.2502 36.8554 50.7C36.7532 51.0197 36.7649 51.3636 36.8887 51.6761C37.0124 51.9886 37.241 52.2516 37.5375 52.4226L44.6214 56.504C45.4272 56.9095 46.0716 57.5629 46.4536 58.3619C46.7571 58.9737 47.2393 59.5421 47.8357 59.9338C48.4393 60.329 49.2089 60.5716 50.0357 60.4173L53.6071 59.7501C54.1087 59.6565 54.5721 59.4256 54.9429 59.0848C55.3137 58.7439 55.5764 58.3073 55.7 57.8264L57.1857 52.0604C57.3321 51.4923 57.3583 50.9013 57.2628 50.323C57.1672 49.7448 56.9519 49.1914 56.6297 48.6962C56.3076 48.201 55.8854 47.7743 55.3886 47.442C54.8918 47.1096 54.3307 46.8784 53.7393 46.7624L49.2857 45.8889V42.2633C49.2857 41.5738 49.0035 40.9126 48.5012 40.4251C47.9988 39.9376 47.3175 39.6637 46.6071 39.6637Z" fill="white"/>
</g>
<defs>
<filter id="filter0_d_168_943" x="0" y="0" width="93" height="93" filterUnits="userSpaceOnUse" color-interpolation-filters="sRGB">
<feFlood flood-opacity="0" result="BackgroundImageFix"/>
<feColorMatrix in="SourceAlpha" type="matrix" values="0 0 0 0 0 0 0 0 0 0 0 0 0 0 0 0 0 0 127 0" result="hardAlpha"/>
<feOffset dy="2"/>
<feGaussianBlur stdDeviation="10"/>
<feComposite in2="hardAlpha" operator="out"/>
<feColorMatrix type="matrix" values="0 0 0 0 0 0 0 0 0 0 0 0 0 0 0 0 0 0 0.1 0"/>
<feBlend mode="normal" in2="BackgroundImageFix" result="effect1_dropShadow_168_943"/>
<feBlend mode="normal" in="SourceGraphic" in2="effect1_dropShadow_168_943" result="shape"/>
</filter>
</defs>
</svg>
