<svg width="73" height="69" viewBox="0 0 73 69" fill="none" xmlns="http://www.w3.org/2000/svg">
<g filter="url(#filter0_d_143_1000)">
<rect x="10" y="9" width="53" height="49" rx="5" fill="white"/>
<path d="M43.7764 36.8223L44.3387 36.2532L43.7764 36.8223C43.9113 36.9556 44.0178 37.1133 44.0903 37.2862C44.1628 37.4591 44.2 37.6441 44.2 37.8307V38.225C44.2 39.8676 43.3597 41.1052 41.974 41.9389C40.5827 42.7756 38.6498 43.2 36.5 43.2C34.3502 43.2 32.4173 42.7756 31.026 41.9389C29.6403 41.1052 28.8 39.8676 28.8 38.225V37.8309C28.8 37.8309 28.8 37.8308 28.8 37.8307C28.8001 37.4543 28.9514 37.0915 29.2237 36.8224C29.4964 36.553 29.8682 36.4 30.2578 36.4H42.7422H42.7424C42.9351 36.4 43.1257 36.4374 43.3032 36.5101C43.4808 36.5827 43.6415 36.689 43.7764 36.8223ZM31.9875 28.25C31.9875 25.8012 33.9988 23.8 36.5 23.8C39.0012 23.8 41.0125 25.8012 41.0125 28.25C41.0125 30.6988 39.0012 32.7 36.5 32.7C33.9988 32.7 31.9875 30.6988 31.9875 28.25Z" fill="#514BDC" stroke="#514BDC" stroke-width="1.6"/>
</g>
<defs>
<filter id="filter0_d_143_1000" x="0" y="0" width="73" height="69" filterUnits="userSpaceOnUse" color-interpolation-filters="sRGB">
<feFlood flood-opacity="0" result="BackgroundImageFix"/>
<feColorMatrix in="SourceAlpha" type="matrix" values="0 0 0 0 0 0 0 0 0 0 0 0 0 0 0 0 0 0 127 0" result="hardAlpha"/>
<feOffset dy="1"/>
<feGaussianBlur stdDeviation="5"/>
<feComposite in2="hardAlpha" operator="out"/>
<feColorMatrix type="matrix" values="0 0 0 0 0 0 0 0 0 0 0 0 0 0 0 0 0 0 0.14 0"/>
<feBlend mode="normal" in2="BackgroundImageFix" result="effect1_dropShadow_143_1000"/>
<feBlend mode="normal" in="SourceGraphic" in2="effect1_dropShadow_143_1000" result="shape"/>
</filter>
</defs>
</svg>
