<svg width="117" height="47" viewBox="0 0 117 47" fill="none" xmlns="http://www.w3.org/2000/svg">
<rect width="117" height="47" rx="23.5" fill="#514BDC"/>
<path d="M28.925 31V12.375H31.875V28.375H39.925V31H28.925ZM48.6516 31.3C47.3516 31.3 46.1599 30.9917 45.0766 30.375C44.0099 29.7583 43.1599 28.9167 42.5266 27.85C41.8932 26.7833 41.5766 25.575 41.5766 24.225C41.5766 22.8583 41.8932 21.65 42.5266 20.6C43.1599 19.5333 44.0099 18.7 45.0766 18.1C46.1432 17.4833 47.3349 17.175 48.6516 17.175C49.9849 17.175 51.1766 17.4833 52.2266 18.1C53.2932 18.7 54.1349 19.5333 54.7516 20.6C55.3849 21.65 55.7016 22.8583 55.7016 24.225C55.7016 25.5917 55.3849 26.8083 54.7516 27.875C54.1182 28.9417 53.2682 29.7833 52.2016 30.4C51.1349 31 49.9516 31.3 48.6516 31.3ZM48.6516 28.675C49.4516 28.675 50.1599 28.4833 50.7766 28.1C51.3932 27.7167 51.8766 27.1917 52.2266 26.525C52.5932 25.8417 52.7766 25.075 52.7766 24.225C52.7766 23.375 52.5932 22.6167 52.2266 21.95C51.8766 21.2833 51.3932 20.7583 50.7766 20.375C50.1599 19.9917 49.4516 19.8 48.6516 19.8C47.8682 19.8 47.1599 19.9917 46.5266 20.375C45.9099 20.7583 45.4182 21.2833 45.0516 21.95C44.7016 22.6167 44.5266 23.375 44.5266 24.225C44.5266 25.075 44.7016 25.8417 45.0516 26.525C45.4182 27.1917 45.9099 27.7167 46.5266 28.1C47.1599 28.4833 47.8682 28.675 48.6516 28.675ZM64.9846 36.5C64.0012 36.5 63.0929 36.3417 62.2596 36.025C61.4262 35.7083 60.7096 35.2667 60.1096 34.7C59.5096 34.15 59.0596 33.5 58.7596 32.75L61.3596 31.675C61.5929 32.3083 62.0179 32.8333 62.6346 33.25C63.2679 33.6667 64.0429 33.875 64.9596 33.875C65.6762 33.875 66.3179 33.7333 66.8846 33.45C67.4512 33.1833 67.9012 32.7833 68.2346 32.25C68.5679 31.7333 68.7346 31.1083 68.7346 30.375V27.325L69.2346 27.9C68.7679 28.7667 68.1179 29.425 67.2846 29.875C66.4679 30.325 65.5429 30.55 64.5096 30.55C63.2596 30.55 62.1346 30.2583 61.1346 29.675C60.1346 29.0917 59.3429 28.2917 58.7596 27.275C58.1929 26.2583 57.9096 25.1167 57.9096 23.85C57.9096 22.5667 58.1929 21.425 58.7596 20.425C59.3429 19.425 60.1262 18.6333 61.1096 18.05C62.0929 17.4667 63.2179 17.175 64.4846 17.175C65.5179 17.175 66.4346 17.4 67.2346 17.85C68.0512 18.2833 68.7179 18.9167 69.2346 19.75L68.8596 20.45V17.475H71.5346V30.375C71.5346 31.5417 71.2512 32.5833 70.6846 33.5C70.1346 34.4333 69.3679 35.1667 68.3846 35.7C67.4012 36.2333 66.2679 36.5 64.9846 36.5ZM64.8346 27.925C65.5846 27.925 66.2512 27.75 66.8346 27.4C67.4179 27.0333 67.8762 26.55 68.2096 25.95C68.5596 25.3333 68.7346 24.6417 68.7346 23.875C68.7346 23.1083 68.5596 22.4167 68.2096 21.8C67.8596 21.1833 67.3929 20.7 66.8096 20.35C66.2262 19.9833 65.5679 19.8 64.8346 19.8C64.0679 19.8 63.3846 19.9833 62.7846 20.35C62.1846 20.7 61.7096 21.1833 61.3596 21.8C61.0262 22.4 60.8596 23.0917 60.8596 23.875C60.8596 24.625 61.0262 25.3083 61.3596 25.925C61.7096 26.5417 62.1846 27.0333 62.7846 27.4C63.3846 27.75 64.0679 27.925 64.8346 27.925ZM81.3664 31.3C80.0664 31.3 78.8747 30.9917 77.7914 30.375C76.7247 29.7583 75.8747 28.9167 75.2414 27.85C74.6081 26.7833 74.2914 25.575 74.2914 24.225C74.2914 22.8583 74.6081 21.65 75.2414 20.6C75.8747 19.5333 76.7247 18.7 77.7914 18.1C78.8581 17.4833 80.0497 17.175 81.3664 17.175C82.6997 17.175 83.8914 17.4833 84.9414 18.1C86.0081 18.7 86.8497 19.5333 87.4664 20.6C88.0997 21.65 88.4164 22.8583 88.4164 24.225C88.4164 25.5917 88.0997 26.8083 87.4664 27.875C86.8331 28.9417 85.9831 29.7833 84.9164 30.4C83.8497 31 82.6664 31.3 81.3664 31.3ZM81.3664 28.675C82.1664 28.675 82.8747 28.4833 83.4914 28.1C84.1081 27.7167 84.5914 27.1917 84.9414 26.525C85.3081 25.8417 85.4914 25.075 85.4914 24.225C85.4914 23.375 85.3081 22.6167 84.9414 21.95C84.5914 21.2833 84.1081 20.7583 83.4914 20.375C82.8747 19.9917 82.1664 19.8 81.3664 19.8C80.5831 19.8 79.8747 19.9917 79.2414 20.375C78.6247 20.7583 78.1331 21.2833 77.7664 21.95C77.4164 22.6167 77.2414 23.375 77.2414 24.225C77.2414 25.075 77.4164 25.8417 77.7664 26.525C78.1331 27.1917 78.6247 27.7167 79.2414 28.1C79.8747 28.4833 80.5831 28.675 81.3664 28.675Z" fill="white"/>
</svg>
