<svg width="132" height="54" viewBox="0 0 132 54" fill="none" xmlns="http://www.w3.org/2000/svg">
<rect x="0.75" width="130.5" height="53.8907" rx="2.6417" fill="white"/>
<path d="M63.4376 32.6507C62.742 32.6507 62.0947 32.523 61.496 32.2676C60.906 32.0123 60.3864 31.6601 59.9374 31.211C59.4971 30.7531 59.1537 30.2159 58.9071 29.5995C58.6605 28.9831 58.5373 28.3051 58.5373 27.5654C58.5373 26.8345 58.6561 26.1609 58.8939 25.5445C59.1404 24.9193 59.4839 24.3822 59.9242 23.9331C60.3644 23.4752 60.8796 23.123 61.4695 22.8764C62.0595 22.621 62.7067 22.4934 63.4112 22.4934C64.1068 22.4934 64.7276 22.6122 65.2736 22.85C65.8284 23.0877 66.2951 23.4003 66.6737 23.7878C67.0523 24.1664 67.3253 24.5803 67.4926 25.0294L66.1057 25.703C65.9032 25.1659 65.5686 24.7344 65.1019 24.4086C64.6352 24.074 64.0716 23.9067 63.4112 23.9067C62.7596 23.9067 62.1828 24.0608 61.6809 24.369C61.179 24.6772 60.7871 25.1042 60.5053 25.6502C60.2323 26.1961 60.0959 26.8345 60.0959 27.5654C60.0959 28.2963 60.2368 28.9391 60.5185 29.4939C60.8091 30.0398 61.2054 30.4669 61.7073 30.7751C62.2092 31.0745 62.786 31.2242 63.4376 31.2242C63.9836 31.2242 64.4811 31.1141 64.9302 30.894C65.3881 30.665 65.7535 30.348 66.0265 29.9429C66.2995 29.5291 66.4359 29.0492 66.4359 28.5032V27.8296L67.136 28.4636H63.4112V27.1427H67.9813V28.0673C67.9813 28.7894 67.8581 29.4366 67.6115 30.009C67.3649 30.5726 67.0303 31.0525 66.6077 31.4487C66.185 31.845 65.7007 32.1444 65.1547 32.3469C64.6088 32.5494 64.0364 32.6507 63.4376 32.6507ZM71.9766 32.6507C71.4395 32.6507 70.9684 32.5318 70.5633 32.2941C70.1582 32.0475 69.8412 31.7085 69.6123 31.277C69.3921 30.8367 69.2821 30.3304 69.2821 29.758V25.3464H70.7746V29.6259C70.7746 29.9518 70.8407 30.2379 70.9728 30.4845C71.1048 30.7311 71.2898 30.9248 71.5275 31.0657C71.7653 31.1978 72.0382 31.2638 72.3464 31.2638C72.6634 31.2638 72.9408 31.1934 73.1786 31.0525C73.4163 30.9116 73.6012 30.7134 73.7333 30.4581C73.8742 30.2027 73.9447 29.9033 73.9447 29.5599V25.3464H75.424V32.4922H74.0107V31.0921L74.1692 31.277C74.0019 31.7173 73.7245 32.0563 73.3371 32.2941C72.9496 32.5318 72.4961 32.6507 71.9766 32.6507ZM80.5217 32.6507C79.8084 32.6507 79.1744 32.4878 78.6197 32.162C78.0737 31.8274 77.6466 31.3783 77.3384 30.8147C77.0302 30.2423 76.8761 29.6039 76.8761 28.8995C76.8761 28.1774 77.0302 27.539 77.3384 26.9842C77.6554 26.4295 78.0781 25.9936 78.6064 25.6766C79.1348 25.3508 79.7336 25.1879 80.4028 25.1879C80.9399 25.1879 81.4199 25.2803 81.8425 25.4653C82.2652 25.6502 82.6218 25.9055 82.9124 26.2314C83.203 26.5484 83.4231 26.9138 83.5728 27.3277C83.7313 27.7415 83.8106 28.1818 83.8106 28.6485C83.8106 28.763 83.8062 28.8819 83.7974 29.0051C83.7886 29.1284 83.771 29.2429 83.7445 29.3486H78.0517V28.1598H82.8992L82.1859 28.7013C82.274 28.2699 82.2432 27.8868 82.0935 27.5522C81.9526 27.2088 81.7325 26.9402 81.4331 26.7465C81.1425 26.544 80.7991 26.4427 80.4028 26.4427C80.0065 26.4427 79.6543 26.544 79.3461 26.7465C79.0379 26.9402 78.8002 27.222 78.6329 27.5918C78.4656 27.9529 78.3995 28.3931 78.4347 28.9127C78.3907 29.397 78.4567 29.8197 78.6329 30.1807C78.8178 30.5417 79.0731 30.8235 79.399 31.026C79.7336 31.2286 80.1122 31.3298 80.5349 31.3298C80.9664 31.3298 81.3318 31.233 81.6312 31.0393C81.9394 30.8455 82.1815 30.5946 82.3577 30.2864L83.5728 30.8808C83.4319 31.2154 83.2118 31.5192 82.9124 31.7921C82.6218 32.0563 82.2696 32.2676 81.8557 32.4261C81.4507 32.5758 81.006 32.6507 80.5217 32.6507ZM87.9089 32.6507C87.1781 32.6507 86.5353 32.4702 85.9805 32.1091C85.4345 31.7481 85.0515 31.2638 84.8314 30.6562L85.9805 30.1147C86.1742 30.5197 86.4384 30.8411 86.773 31.0789C87.1164 31.3166 87.4951 31.4355 87.9089 31.4355C88.2612 31.4355 88.5474 31.3563 88.7675 31.1978C88.9876 31.0393 89.0977 30.8235 89.0977 30.5505C89.0977 30.3744 89.0493 30.2335 88.9524 30.1279C88.8556 30.0134 88.7323 29.9209 88.5826 29.8505C88.4417 29.78 88.2964 29.7272 88.1467 29.692L87.024 29.375C86.4076 29.1989 85.9453 28.9347 85.6371 28.5825C85.3377 28.2214 85.188 27.8032 85.188 27.3277C85.188 26.8962 85.2981 26.5219 85.5182 26.2049C85.7383 25.8791 86.0421 25.6282 86.4296 25.4521C86.817 25.2759 87.2529 25.1879 87.7372 25.1879C88.3889 25.1879 88.97 25.3508 89.4808 25.6766C89.9915 25.9936 90.3525 26.4383 90.5639 27.0107L89.4147 27.5522C89.2738 27.2088 89.0493 26.9358 88.7411 26.7333C88.4417 26.5308 88.1027 26.4295 87.724 26.4295C87.3982 26.4295 87.1384 26.5087 86.9447 26.6672C86.751 26.8169 86.6541 27.0151 86.6541 27.2616C86.6541 27.4289 86.6982 27.5698 86.7862 27.6843C86.8743 27.79 86.9888 27.878 87.1296 27.9485C87.2705 28.0101 87.4158 28.0629 87.5655 28.107L88.7279 28.4504C89.3178 28.6177 89.7713 28.8819 90.0883 29.2429C90.4053 29.5951 90.5639 30.0178 90.5639 30.5109C90.5639 30.9336 90.4494 31.3078 90.2204 31.6336C90.0003 31.9506 89.6921 32.2016 89.2958 32.3865C88.8996 32.5626 88.4373 32.6507 87.9089 32.6507ZM95.1171 32.5714C94.3686 32.5714 93.7874 32.3601 93.3735 31.9374C92.9597 31.5148 92.7527 30.9204 92.7527 30.1543V26.6937H91.4979V25.3464H91.6961C92.0307 25.3464 92.2904 25.2495 92.4754 25.0558C92.6603 24.8621 92.7527 24.5979 92.7527 24.2633V23.7085H94.2453V25.3464H95.87V26.6937H94.2453V30.0882C94.2453 30.3348 94.2849 30.5461 94.3642 30.7222C94.4434 30.8896 94.5711 31.0216 94.7472 31.1185C94.9233 31.2066 95.1523 31.2506 95.4341 31.2506C95.5045 31.2506 95.5838 31.2462 95.6718 31.2374C95.7599 31.2286 95.8435 31.2198 95.9228 31.211V32.4922C95.7995 32.5098 95.663 32.5274 95.5133 32.545C95.3636 32.5626 95.2315 32.5714 95.1171 32.5714ZM100.698 32.6507C100.011 32.6507 99.3813 32.4878 98.809 32.162C98.2454 31.8362 97.7963 31.3915 97.4617 30.8279C97.1271 30.2644 96.9598 29.6259 96.9598 28.9127C96.9598 28.1906 97.1271 27.5522 97.4617 26.9975C97.7963 26.4339 98.2454 25.9936 98.809 25.6766C99.3725 25.3508 100.002 25.1879 100.698 25.1879C101.402 25.1879 102.032 25.3508 102.587 25.6766C103.15 25.9936 103.595 26.4339 103.921 26.9975C104.255 27.5522 104.423 28.1906 104.423 28.9127C104.423 29.6347 104.255 30.2776 103.921 30.8411C103.586 31.4047 103.137 31.8494 102.573 32.1752C102.01 32.4922 101.385 32.6507 100.698 32.6507ZM100.698 31.2638C101.12 31.2638 101.495 31.1625 101.82 30.96C102.146 30.7575 102.402 30.4801 102.587 30.1279C102.78 29.7668 102.877 29.3618 102.877 28.9127C102.877 28.4636 102.78 28.0629 102.587 27.7107C102.402 27.3585 102.146 27.0811 101.82 26.8786C101.495 26.676 101.12 26.5748 100.698 26.5748C100.284 26.5748 99.9097 26.676 99.575 26.8786C99.2492 27.0811 98.9895 27.3585 98.7957 27.7107C98.6108 28.0629 98.5184 28.4636 98.5184 28.9127C98.5184 29.3618 98.6108 29.7668 98.7957 30.1279C98.9895 30.4801 99.2492 30.7575 99.575 30.96C99.9097 31.1625 100.284 31.2638 100.698 31.2638ZM105.88 35.1339V25.3464H107.306V26.8257L107.135 26.4823C107.399 26.0773 107.751 25.7603 108.191 25.5313C108.631 25.3024 109.133 25.1879 109.697 25.1879C110.375 25.1879 110.983 25.3508 111.52 25.6766C112.066 26.0024 112.493 26.4471 112.801 27.0107C113.118 27.5742 113.276 28.2082 113.276 28.9127C113.276 29.6171 113.118 30.2511 112.801 30.8147C112.493 31.3783 112.07 31.8274 111.533 32.162C110.996 32.4878 110.384 32.6507 109.697 32.6507C109.142 32.6507 108.636 32.5362 108.178 32.3073C107.729 32.0783 107.381 31.7481 107.135 31.3166L107.372 31.0393V35.1339H105.88ZM109.552 31.2638C109.974 31.2638 110.349 31.1625 110.674 30.96C111 30.7575 111.256 30.4801 111.441 30.1279C111.634 29.7668 111.731 29.3618 111.731 28.9127C111.731 28.4636 111.634 28.0629 111.441 27.7107C111.256 27.3585 111 27.0811 110.674 26.8786C110.349 26.676 109.974 26.5748 109.552 26.5748C109.138 26.5748 108.764 26.676 108.429 26.8786C108.103 27.0811 107.843 27.3585 107.65 27.7107C107.465 28.0629 107.372 28.4636 107.372 28.9127C107.372 29.3618 107.465 29.7668 107.65 30.1279C107.843 30.4801 108.103 30.7575 108.429 30.96C108.764 31.1625 109.138 31.2638 109.552 31.2638Z" fill="black"/>
<g clip-path="url(#clip0_1641_1619)">
<rect x="13.4302" y="9.50977" width="34.8704" height="35.9271" rx="5.2834" fill="white"/>
<g filter="url(#filter0_i_1641_1619)">
<rect x="13.4302" y="9.50977" width="34.8704" height="35.9271" rx="3.52227" fill="#514BDA"/>
<rect x="13.4302" y="9.50977" width="34.8704" height="35.9271" rx="3.52227" fill="url(#paint0_radial_1641_1619)" fill-opacity="0.7"/>
<rect x="13.4302" y="9.50977" width="34.8704" height="35.9271" rx="3.52227" fill="url(#paint1_radial_1641_1619)"/>
</g>
<path d="M21.7083 21.6692L21.3691 21.1158L21.365 21.1184L21.7083 21.6692ZM29.7215 16.7574L29.3825 16.2039L29.3823 16.204L29.7215 16.7574ZM32.5376 16.7574L32.8763 16.2037L32.8731 16.2018L32.5376 16.7574ZM40.5507 21.6602L40.212 22.2139L40.2125 22.2142L40.5507 21.6602ZM40.7831 37.3413C40.7831 37.6998 41.0737 37.9904 41.4322 37.9904C41.7906 37.9904 42.0813 37.6998 42.0813 37.3413H40.7831ZM21.476 37.791V23.1642H20.1778V37.791H21.476ZM21.476 23.1642C21.476 22.8558 21.6773 22.4534 22.0517 22.2201L21.365 21.1184C20.6405 21.57 20.1778 22.3732 20.1778 23.1642H21.476ZM22.0476 22.2226L30.0607 17.3108L29.3823 16.204L21.3691 21.1158L22.0476 22.2226ZM30.0605 17.311C30.6752 16.9345 31.5713 16.9321 32.202 17.313L32.8731 16.2018C31.8326 15.5734 30.4162 15.5709 29.3825 16.2039L30.0605 17.311ZM32.1988 17.3111L40.212 22.2139L40.8895 21.1065L32.8763 16.2038L32.1988 17.3111ZM40.2125 22.2142C40.6171 22.4612 40.7831 22.7915 40.7831 23.0841H42.0813C42.0813 22.2592 41.6062 21.5441 40.889 21.1062L40.2125 22.2142ZM40.7831 23.0841V37.3413H42.0813V23.0841H40.7831Z" fill="white"/>
<path d="M20.8269 37.1416L35.0334 37.1416" stroke="white" stroke-width="1.29818"/>
<circle cx="30.9354" cy="25.3944" r="2.90253" stroke="white" stroke-width="1.29818"/>
<path d="M25.7446 34.4098V30.0386C25.7446 29.5235 25.7446 29.2659 25.9047 29.1058C26.0647 28.9458 26.3223 28.9458 26.8374 28.9458H35.5799C36.095 28.9458 36.3526 28.9458 36.5127 29.1058C36.6727 29.2659 36.6727 29.5235 36.6727 30.0386V36.049C36.6727 36.5642 36.6727 36.8218 36.5127 36.9818C36.3526 37.1418 36.095 37.1418 35.5799 37.1418H33.6128" stroke="white" stroke-width="1.29818" stroke-linecap="round"/>
<path d="M29.6326 26.9453C30.2705 27.9758 29.8984 29.2532 29.6326 29.7631" stroke="#5C56DA" stroke-width="0.26417"/>
<path d="M31.9221 29.7632C31.2842 28.6683 31.6563 27.311 31.9221 26.7693" stroke="#5D58D9" stroke-width="0.26417"/>
<rect x="29.9849" y="27.1216" width="1.58502" height="2.6417" fill="#5D58D9"/>
<rect x="29.8086" y="29.0586" width="1.93725" height="0.704453" rx="0.352227" fill="#5D58D9"/>
<rect x="29.8086" y="26.9453" width="1.76113" height="0.704453" rx="0.352227" fill="#5D58D9"/>
<path d="M30.6893 25.5366L10.2518 6.38429L51.1268 6.38429L30.6893 25.5366Z" fill="white" fill-opacity="0.03"/>
<path d="M30.6893 28.354L51.1268 47.5063L10.2518 47.5063L30.6893 28.354Z" fill="white" fill-opacity="0.03"/>
</g>
<defs>
<filter id="filter0_i_1641_1619" x="12.9018" y="8.80531" width="35.3988" height="36.6317" filterUnits="userSpaceOnUse" color-interpolation-filters="sRGB">
<feFlood flood-opacity="0" result="BackgroundImageFix"/>
<feBlend mode="normal" in="SourceGraphic" in2="BackgroundImageFix" result="shape"/>
<feColorMatrix in="SourceAlpha" type="matrix" values="0 0 0 0 0 0 0 0 0 0 0 0 0 0 0 0 0 0 127 0" result="hardAlpha"/>
<feOffset dx="-0.52834" dy="-0.704453"/>
<feGaussianBlur stdDeviation="0.616397"/>
<feComposite in2="hardAlpha" operator="arithmetic" k2="-1" k3="1"/>
<feColorMatrix type="matrix" values="0 0 0 0 1 0 0 0 0 1 0 0 0 0 1 0 0 0 0.15 0"/>
<feBlend mode="normal" in2="shape" result="effect1_innerShadow_1641_1619"/>
</filter>
<radialGradient id="paint0_radial_1641_1619" cx="0" cy="0" r="1" gradientUnits="userSpaceOnUse" gradientTransform="translate(46.8037 11.6231) rotate(101.316) scale(29.3953 29.1997)">
<stop stop-color="white" stop-opacity="0.59"/>
<stop offset="0.90049" stop-color="white" stop-opacity="0"/>
<stop offset="1" stop-color="white" stop-opacity="0"/>
</radialGradient>
<radialGradient id="paint1_radial_1641_1619" cx="0" cy="0" r="1" gradientUnits="userSpaceOnUse" gradientTransform="translate(43.5238 40.946) rotate(-93.5628) scale(30.7472 33.269)">
<stop stop-opacity="0.23"/>
<stop offset="0.861815" stop-opacity="0"/>
</radialGradient>
<clipPath id="clip0_1641_1619">
<rect x="13.4302" y="9.50977" width="34.8704" height="35.9271" rx="5.2834" fill="white"/>
</clipPath>
</defs>
</svg>
