<svg width="42" height="38" viewBox="0 0 42 38" fill="none" xmlns="http://www.w3.org/2000/svg">
<path d="M16.3824 10.3962C16.1376 10.65 16 10.9941 16 11.3529C16 11.7118 16.1376 12.0559 16.3824 12.3097L22.8474 19.0082L16.3824 25.7067C16.1445 25.9619 16.0128 26.3037 16.0158 26.6585C16.0188 27.0133 16.1562 27.3527 16.3983 27.6036C16.6405 27.8545 16.968 27.9969 17.3105 27.9999C17.6529 28.003 17.9829 27.8666 18.2292 27.6201L25.6176 19.9649C25.8625 19.7111 26 19.367 26 19.0082C26 18.6493 25.8625 18.3052 25.6176 18.0514L18.2292 10.3962C17.9843 10.1425 17.6521 10 17.3058 10C16.9595 10 16.6273 10.1425 16.3824 10.3962Z" fill="#3737AD"/>
<rect x="0.5" y="37.5" width="37" height="41" rx="9.5" transform="rotate(-90 0.5 37.5)" stroke="black" stroke-opacity="0.15"/>
</svg>
