<svg width="42" height="38" viewBox="0 0 42 38" fill="none" xmlns="http://www.w3.org/2000/svg">
<path d="M25.6176 27.6038C25.8624 27.35 26 27.0059 26 26.6471C26 26.2882 25.8624 25.9441 25.6176 25.6903L19.1526 18.9918L25.6176 12.2933C25.8555 12.0381 25.9872 11.6963 25.9842 11.3415C25.9812 10.9867 25.8438 10.6473 25.6017 10.3964C25.3595 10.1455 25.032 10.0031 24.6895 10.0001C24.3471 9.99697 24.0172 10.1334 23.7708 10.3799L16.3824 18.0351C16.1376 18.2889 16 18.633 16 18.9918C16 19.3507 16.1375 19.6948 16.3824 19.9486L23.7708 27.6038C24.0157 27.8575 24.3479 28 24.6942 28C25.0405 28 25.3727 27.8575 25.6176 27.6038Z" fill="#3737AD"/>
<rect x="41.5" y="0.5" width="37" height="41" rx="9.5" transform="rotate(90 41.5 0.5)" stroke="black" stroke-opacity="0.15"/>
</svg>
