<svg width="73" height="69" viewBox="0 0 73 69" fill="none" xmlns="http://www.w3.org/2000/svg">
<g filter="url(#filter0_d_152_1005)">
<rect x="10" y="9" width="53" height="49" rx="5" fill="white"/>
<g filter="url(#filter1_d_152_1005)">
<path d="M26 27.575C26 26.6269 26.3937 25.7175 27.0945 25.0471C27.7953 24.3767 28.7458 24 29.7369 24H42.96C43.9511 24 44.9016 24.3767 45.6024 25.0471C46.3032 25.7175 46.6969 26.6269 46.6969 27.575V37.0955L45.2482 34.3213C44.4939 32.8759 42.7404 32.4601 41.4112 33.075H35.4861C35.2574 33.075 35.038 33.1619 34.8763 33.3166C34.7146 33.4714 34.6237 33.6812 34.6237 33.9C34.6237 34.1188 34.7146 34.3286 34.8763 34.4834C35.038 34.6381 35.2574 34.725 35.4861 34.725H39.8923L38.5998 37.2H35.4861C35.2574 37.2 35.038 37.2869 34.8763 37.4416C34.7146 37.5964 34.6237 37.8062 34.6237 38.025C34.6237 38.2438 34.7146 38.4536 34.8763 38.6084C35.038 38.7631 35.2574 38.85 35.4861 38.85H37.7386L35.5079 43.118C35.3951 43.3341 35.312 43.5634 35.2607 43.8H29.7369C28.7458 43.8 27.7953 43.4233 27.0945 42.7529C26.3937 42.0825 26 41.1731 26 40.225V27.575ZM31.4617 30.875C31.7666 30.875 32.0591 30.7591 32.2747 30.5528C32.4904 30.3465 32.6115 30.0667 32.6115 29.775C32.6115 29.4833 32.4904 29.2035 32.2747 28.9972C32.0591 28.7909 31.7666 28.675 31.4617 28.675C31.1567 28.675 30.8643 28.7909 30.6486 28.9972C30.433 29.2035 30.3119 29.4833 30.3119 29.775C30.3119 30.0667 30.433 30.3465 30.6486 30.5528C30.8643 30.7591 31.1567 30.875 31.4617 30.875ZM35.4861 28.95C35.2574 28.95 35.038 29.0369 34.8763 29.1916C34.7146 29.3464 34.6237 29.5562 34.6237 29.775C34.6237 29.9938 34.7146 30.2036 34.8763 30.3584C35.038 30.5131 35.2574 30.6 35.4861 30.6H41.8102C42.0389 30.6 42.2582 30.5131 42.42 30.3584C42.5817 30.2036 42.6725 29.9938 42.6725 29.775C42.6725 29.5562 42.5817 29.3464 42.42 29.1916C42.2582 29.0369 42.0389 28.95 41.8102 28.95H35.4861ZM32.6115 33.9C32.6115 33.6083 32.4904 33.3285 32.2747 33.1222C32.0591 32.9159 31.7666 32.8 31.4617 32.8C31.1567 32.8 30.8643 32.9159 30.6486 33.1222C30.433 33.3285 30.3119 33.6083 30.3119 33.9C30.3119 34.1917 30.433 34.4715 30.6486 34.6778C30.8643 34.8841 31.1567 35 31.4617 35C31.7666 35 32.0591 34.8841 32.2747 34.6778C32.4904 34.4715 32.6115 34.1917 32.6115 33.9ZM31.4617 39.125C31.7666 39.125 32.0591 39.0091 32.2747 38.8028C32.4904 38.5965 32.6115 38.3167 32.6115 38.025C32.6115 37.7333 32.4904 37.4535 32.2747 37.2472C32.0591 37.0409 31.7666 36.925 31.4617 36.925C31.1567 36.925 30.8643 37.0409 30.6486 37.2472C30.433 37.4535 30.3119 37.7333 30.3119 38.025C30.3119 38.3167 30.433 38.5965 30.6486 38.8028C30.8643 39.0091 31.1567 39.125 31.4617 39.125ZM41.1329 34.813C41.7688 33.5953 43.5855 33.5953 44.2214 34.813L48.8172 43.6108C48.9491 43.8626 49.0115 44.1425 48.9983 44.4239C48.9851 44.7053 48.8968 44.9787 48.7419 45.2182C48.587 45.4577 48.3706 45.6553 48.1133 45.7922C47.8559 45.929 47.5663 46.0006 47.2719 46H38.0801C37.7858 46.0004 37.4963 45.9287 37.2391 45.7917C36.982 45.6548 36.7657 45.4572 36.6109 45.2177C36.4561 44.9783 36.368 44.7049 36.3548 44.4236C36.3417 44.1423 36.404 43.8625 36.5359 43.6108L41.1329 34.813ZM43.2521 37.7456C43.2521 37.5997 43.1915 37.4598 43.0837 37.3567C42.9758 37.2535 42.8296 37.1956 42.6771 37.1956C42.5247 37.1956 42.3784 37.2535 42.2706 37.3567C42.1628 37.4598 42.1022 37.5997 42.1022 37.7456V41.0467C42.1022 41.1926 42.1628 41.3325 42.2706 41.4356C42.3784 41.5388 42.5247 41.5967 42.6771 41.5967C42.8296 41.5967 42.9758 41.5388 43.0837 41.4356C43.1915 41.3325 43.2521 41.1926 43.2521 41.0467V37.7456ZM42.6771 43.7989C42.8296 43.7989 42.9758 43.741 43.0837 43.6378C43.1915 43.5347 43.2521 43.3948 43.2521 43.2489C43.2521 43.103 43.1915 42.9631 43.0837 42.86C42.9758 42.7568 42.8296 42.6989 42.6771 42.6989C42.5247 42.6989 42.3784 42.7568 42.2706 42.86C42.1628 42.9631 42.1022 43.103 42.1022 43.2489C42.1022 43.3948 42.1628 43.5347 42.2706 43.6378C42.3784 43.741 42.5247 43.7989 42.6771 43.7989Z" fill="#514BDC"/>
</g>
</g>
<defs>
<filter id="filter0_d_152_1005" x="0" y="0" width="73" height="69" filterUnits="userSpaceOnUse" color-interpolation-filters="sRGB">
<feFlood flood-opacity="0" result="BackgroundImageFix"/>
<feColorMatrix in="SourceAlpha" type="matrix" values="0 0 0 0 0 0 0 0 0 0 0 0 0 0 0 0 0 0 127 0" result="hardAlpha"/>
<feOffset dy="1"/>
<feGaussianBlur stdDeviation="5"/>
<feComposite in2="hardAlpha" operator="out"/>
<feColorMatrix type="matrix" values="0 0 0 0 0 0 0 0 0 0 0 0 0 0 0 0 0 0 0.14 0"/>
<feBlend mode="normal" in2="BackgroundImageFix" result="effect1_dropShadow_152_1005"/>
<feBlend mode="normal" in="SourceGraphic" in2="effect1_dropShadow_152_1005" result="shape"/>
</filter>
<filter id="filter1_d_152_1005" x="22" y="24" width="31" height="30" filterUnits="userSpaceOnUse" color-interpolation-filters="sRGB">
<feFlood flood-opacity="0" result="BackgroundImageFix"/>
<feColorMatrix in="SourceAlpha" type="matrix" values="0 0 0 0 0 0 0 0 0 0 0 0 0 0 0 0 0 0 127 0" result="hardAlpha"/>
<feOffset dy="4"/>
<feGaussianBlur stdDeviation="2"/>
<feComposite in2="hardAlpha" operator="out"/>
<feColorMatrix type="matrix" values="0 0 0 0 0.986111 0 0 0 0 0.986111 0 0 0 0 1 0 0 0 0.07 0"/>
<feBlend mode="normal" in2="BackgroundImageFix" result="effect1_dropShadow_152_1005"/>
<feBlend mode="normal" in="SourceGraphic" in2="effect1_dropShadow_152_1005" result="shape"/>
</filter>
</defs>
</svg>
