<svg width="73" height="69" viewBox="0 0 73 69" fill="none" xmlns="http://www.w3.org/2000/svg">
<g filter="url(#filter0_d_143_980)">
<rect x="10" y="9" width="53" height="49" rx="5" fill="white"/>
<path d="M46.19 35.0598L45.06 33.1798C44.81 32.7698 44.59 31.9798 44.59 31.4998V29.6298C44.59 25.9998 41.64 23.0498 38.02 23.0498C34.39 23.0598 31.44 25.9998 31.44 29.6298V31.4898C31.44 31.9698 31.22 32.7598 30.98 33.1698L29.85 35.0498C29.42 35.7798 29.32 36.6098 29.59 37.3298C29.86 38.0598 30.47 38.6398 31.27 38.8998C32.35 39.2598 33.44 39.5198 34.55 39.7098C34.66 39.7298 34.77 39.7398 34.88 39.7598C35.02 39.7798 35.17 39.7998 35.32 39.8198C35.58 39.8598 35.84 39.8898 36.11 39.9098C36.74 39.9698 37.38 39.9998 38.02 39.9998C38.65 39.9998 39.28 39.9698 39.9 39.9098C40.13 39.8898 40.36 39.8698 40.58 39.8398C40.76 39.8198 40.94 39.7998 41.12 39.7698C41.23 39.7598 41.34 39.7398 41.45 39.7198C42.57 39.5398 43.68 39.2598 44.76 38.8998C45.53 38.6398 46.12 38.0598 46.4 37.3198C46.68 36.5698 46.6 35.7498 46.19 35.0598ZM38.75 30.9998C38.75 31.4198 38.41 31.7598 37.99 31.7598C37.57 31.7598 37.23 31.4198 37.23 30.9998V27.8998C37.23 27.4798 37.57 27.1398 37.99 27.1398C38.41 27.1398 38.75 27.4798 38.75 27.8998V30.9998Z" fill="#514BDC"/>
<path d="M40.83 41.01C40.41 42.17 39.3 43 38 43C37.21 43 36.43 42.68 35.88 42.11C35.56 41.81 35.32 41.41 35.18 41C35.31 41.02 35.44 41.03 35.58 41.05C35.81 41.08 36.05 41.11 36.29 41.13C36.86 41.18 37.44 41.21 38.02 41.21C38.59 41.21 39.16 41.18 39.72 41.13C39.93 41.11 40.14 41.1 40.34 41.07C40.5 41.05 40.66 41.03 40.83 41.01Z" fill="#514BDC"/>
</g>
<defs>
<filter id="filter0_d_143_980" x="0" y="0" width="73" height="69" filterUnits="userSpaceOnUse" color-interpolation-filters="sRGB">
<feFlood flood-opacity="0" result="BackgroundImageFix"/>
<feColorMatrix in="SourceAlpha" type="matrix" values="0 0 0 0 0 0 0 0 0 0 0 0 0 0 0 0 0 0 127 0" result="hardAlpha"/>
<feOffset dy="1"/>
<feGaussianBlur stdDeviation="5"/>
<feComposite in2="hardAlpha" operator="out"/>
<feColorMatrix type="matrix" values="0 0 0 0 0 0 0 0 0 0 0 0 0 0 0 0 0 0 0.14 0"/>
<feBlend mode="normal" in2="BackgroundImageFix" result="effect1_dropShadow_143_980"/>
<feBlend mode="normal" in="SourceGraphic" in2="effect1_dropShadow_143_980" result="shape"/>
</filter>
</defs>
</svg>
