<svg width="22" height="23" viewBox="0 0 22 23" fill="none" xmlns="http://www.w3.org/2000/svg">
<path d="M8.88422 0.5C3.97759 0.5 0 4.47774 0 9.38456C0 14.2914 3.97759 18.2691 8.88422 18.2691C10.9572 18.2691 12.8635 17.5592 14.3747 16.3704L20.1943 22.1902C20.2925 22.2884 20.4091 22.3663 20.5374 22.4195C20.6658 22.4726 20.8033 22.5 20.9422 22.5C21.0811 22.5 21.2187 22.4726 21.347 22.4195C21.4753 22.3663 21.592 22.2884 21.6902 22.1902C21.7884 22.0919 21.8663 21.9753 21.9195 21.847C21.9726 21.7186 22 21.5811 22 21.4422C22 21.3033 21.9726 21.1657 21.9195 21.0374C21.8663 20.909 21.7884 20.7924 21.6902 20.6942L15.8698 14.8744C17.1025 13.3103 17.7715 11.3761 17.7684 9.38456C17.7684 4.47774 13.7908 0.5 8.88422 0.5ZM2.11529 9.38456C2.11529 7.58926 2.82844 5.86749 4.09786 4.59802C5.36728 3.32855 7.08899 2.61537 8.88422 2.61537C10.6794 2.61537 12.4012 3.32855 13.6706 4.59802C14.94 5.86749 15.6531 7.58926 15.6531 9.38456C15.6531 11.1799 14.94 12.9016 13.6706 14.1711C12.4012 15.4406 10.6794 16.1537 8.88422 16.1537C7.08899 16.1537 5.36728 15.4406 4.09786 14.1711C2.82844 12.9016 2.11529 11.1799 2.11529 9.38456Z" fill="#F8F8F8"/>
</svg>
