<svg width="38" height="38" viewBox="0 0 38 38" fill="none" xmlns="http://www.w3.org/2000/svg">
<rect width="38" height="38" rx="5" fill="#514BDC"/>
<path d="M7.30724 31.4231C6.91962 31.4231 6.54787 31.2691 6.27378 30.995C5.99969 30.7209 5.8457 30.3492 5.8457 29.9615C5.8457 29.5739 5.99969 29.2022 6.27378 28.9281C6.54787 28.654 6.91962 28.5 7.30724 28.5H30.6919C31.0795 28.5 31.4512 28.654 31.7253 28.9281C31.9994 29.2022 32.1534 29.5739 32.1534 29.9615C32.1534 30.3492 31.9994 30.7209 31.7253 30.995C31.4512 31.2691 31.0795 31.4231 30.6919 31.4231H7.30724Z" fill="white"/>
<path d="M13.8843 29.2308C13.8843 29.6184 13.7303 29.9902 13.4562 30.2643C13.1821 30.5384 12.8103 30.6923 12.4227 30.6923C12.0351 30.6923 11.6633 30.5384 11.3893 30.2643C11.1152 29.9902 10.9612 29.6184 10.9612 29.2308V10.681C10.9612 8.05311 12.8743 5.84619 15.3458 5.84619H22.6535C25.125 5.84619 27.0381 8.05311 27.0381 10.681V29.2308C27.0381 29.6184 26.8841 29.9902 26.61 30.2643C26.3359 30.5384 25.9642 30.6923 25.5766 30.6923C25.1889 30.6923 24.8172 30.5384 24.5431 30.2643C24.269 29.9902 24.115 29.6184 24.115 29.2308V10.681C24.115 9.58188 23.4106 8.76927 22.6535 8.76927H15.3458C14.5887 8.76927 13.8843 9.58188 13.8843 10.681V29.2308Z" fill="white"/>
<path d="M16.0765 10.231H17.538C17.7318 10.231 17.9177 10.3079 18.0547 10.445C18.1918 10.582 18.2688 10.7679 18.2688 10.9617V12.4233C18.2688 12.6171 18.1918 12.803 18.0547 12.94C17.9177 13.077 17.7318 13.154 17.538 13.154H16.0765C15.8827 13.154 15.6968 13.077 15.5597 12.94C15.4227 12.803 15.3457 12.6171 15.3457 12.4233V10.9617C15.3457 10.7679 15.4227 10.582 15.5597 10.445C15.6968 10.3079 15.8827 10.231 16.0765 10.231ZM20.4611 10.231H21.9226C22.1164 10.231 22.3023 10.3079 22.4394 10.445C22.5764 10.582 22.6534 10.7679 22.6534 10.9617V12.4233C22.6534 12.6171 22.5764 12.803 22.4394 12.94C22.3023 13.077 22.1164 13.154 21.9226 13.154H20.4611C20.2673 13.154 20.0814 13.077 19.9444 12.94C19.8073 12.803 19.7303 12.6171 19.7303 12.4233V10.9617C19.7303 10.7679 19.8073 10.582 19.9444 10.445C20.0814 10.3079 20.2673 10.231 20.4611 10.231ZM20.4611 14.6156H21.9226C22.1164 14.6156 22.3023 14.6926 22.4394 14.8296C22.5764 14.9667 22.6534 15.1525 22.6534 15.3463V16.8079C22.6534 17.0017 22.5764 17.1876 22.4394 17.3246C22.3023 17.4617 22.1164 17.5386 21.9226 17.5386H20.4611C20.2673 17.5386 20.0814 17.4617 19.9444 17.3246C19.8073 17.1876 19.7303 17.0017 19.7303 16.8079V15.3463C19.7303 15.1525 19.8073 14.9667 19.9444 14.8296C20.0814 14.6926 20.2673 14.6156 20.4611 14.6156ZM20.4611 19.0002H21.9226C22.1164 19.0002 22.3023 19.0772 22.4394 19.2142C22.5764 19.3513 22.6534 19.5371 22.6534 19.731V21.1925C22.6534 21.3863 22.5764 21.5722 22.4394 21.7092C22.3023 21.8463 22.1164 21.9233 21.9226 21.9233H20.4611C20.2673 21.9233 20.0814 21.8463 19.9444 21.7092C19.8073 21.5722 19.7303 21.3863 19.7303 21.1925V19.731C19.7303 19.5371 19.8073 19.3513 19.9444 19.2142C20.0814 19.0772 20.2673 19.0002 20.4611 19.0002ZM20.4611 23.3848H21.9226C22.1164 23.3848 22.3023 23.4618 22.4394 23.5988C22.5764 23.7359 22.6534 23.9218 22.6534 24.1156V25.5771C22.6534 25.7709 22.5764 25.9568 22.4394 26.0938C22.3023 26.2309 22.1164 26.3079 21.9226 26.3079H20.4611C20.2673 26.3079 20.0814 26.2309 19.9444 26.0938C19.8073 25.9568 19.7303 25.7709 19.7303 25.5771V24.1156C19.7303 23.9218 19.8073 23.7359 19.9444 23.5988C20.0814 23.4618 20.2673 23.3848 20.4611 23.3848ZM16.0765 14.6156H17.538C17.7318 14.6156 17.9177 14.6926 18.0547 14.8296C18.1918 14.9667 18.2688 15.1525 18.2688 15.3463V16.8079C18.2688 17.0017 18.1918 17.1876 18.0547 17.3246C17.9177 17.4617 17.7318 17.5386 17.538 17.5386H16.0765C15.8827 17.5386 15.6968 17.4617 15.5597 17.3246C15.4227 17.1876 15.3457 17.0017 15.3457 16.8079V15.3463C15.3457 15.1525 15.4227 14.9667 15.5597 14.8296C15.6968 14.6926 15.8827 14.6156 16.0765 14.6156ZM16.0765 23.3848H17.538C17.7318 23.3848 17.9177 23.4618 18.0547 23.5988C18.1918 23.7359 18.2688 23.9218 18.2688 24.1156V25.5771C18.2688 25.7709 18.1918 25.9568 18.0547 26.0938C17.9177 26.2309 17.7318 26.3079 17.538 26.3079H16.0765C15.8827 26.3079 15.6968 26.2309 15.5597 26.0938C15.4227 25.9568 15.3457 25.7709 15.3457 25.5771V24.1156C15.3457 23.9218 15.4227 23.7359 15.5597 23.5988C15.6968 23.4618 15.8827 23.3848 16.0765 23.3848ZM16.0765 19.0002H17.538C17.7318 19.0002 17.9177 19.0772 18.0547 19.2142C18.1918 19.3513 18.2688 19.5371 18.2688 19.731V21.1925C18.2688 21.3863 18.1918 21.5722 18.0547 21.7092C17.9177 21.8463 17.7318 21.9233 17.538 21.9233H16.0765C15.8827 21.9233 15.6968 21.8463 15.5597 21.7092C15.4227 21.5722 15.3457 21.3863 15.3457 21.1925V19.731C15.3457 19.5371 15.4227 19.3513 15.5597 19.2142C15.6968 19.0772 15.8827 19.0002 16.0765 19.0002Z" fill="white"/>
</svg>
