<svg width="93" height="93" viewBox="0 0 93 93" fill="none" xmlns="http://www.w3.org/2000/svg">
<g filter="url(#filter0_d_168_946)">
<rect x="20" y="18" width="53" height="53" rx="5" fill="#514BDC"/>
<g clip-path="url(#clip0_168_946)">
<path d="M46.3846 50.1923C46.9763 50.1923 47.5437 49.9573 47.962 49.539C48.3804 49.1206 48.6154 48.5532 48.6154 47.9616C48.6154 47.3699 48.3804 46.8025 47.962 46.3842C47.5437 45.9658 46.9763 45.7308 46.3846 45.7308C45.793 45.7308 45.2256 45.9658 44.8072 46.3842C44.3889 46.8025 44.1539 47.3699 44.1539 47.9616C44.1539 48.5532 44.3889 49.1206 44.8072 49.539C45.2256 49.9573 45.793 50.1923 46.3846 50.1923ZM53.0769 40.1539C53.6686 40.1539 54.236 40.3889 54.6543 40.8073C55.0727 41.2256 55.3077 41.793 55.3077 42.3847V53.5385C55.3077 54.1301 55.0727 54.6975 54.6543 55.1159C54.236 55.5342 53.6686 55.7693 53.0769 55.7693H39.6923C39.1007 55.7693 38.5333 55.5342 38.1149 55.1159C37.6966 54.6975 37.4615 54.1301 37.4615 53.5385V42.3847C37.4615 41.793 37.6966 41.2256 38.1149 40.8073C38.5333 40.3889 39.1007 40.1539 39.6923 40.1539H40.8077V37.9231C40.8077 36.444 41.3953 35.0255 42.4411 33.9796C43.487 32.9338 44.9055 32.3462 46.3846 32.3462C47.117 32.3462 47.8422 32.4904 48.5188 32.7707C49.1954 33.051 49.8102 33.4618 50.3281 33.9796C50.846 34.4975 51.2568 35.1123 51.537 35.7889C51.8173 36.4655 51.9615 37.1907 51.9615 37.9231V40.1539H53.0769ZM46.3846 34.577C45.4972 34.577 44.6461 34.9295 44.0185 35.557C43.391 36.1846 43.0385 37.0357 43.0385 37.9231V40.1539H49.7308V37.9231C49.7308 37.0357 49.3782 36.1846 48.7507 35.557C48.1232 34.9295 47.2721 34.577 46.3846 34.577Z" fill="#F8F8F8"/>
</g>
</g>
<defs>
<filter id="filter0_d_168_946" x="0" y="0" width="93" height="93" filterUnits="userSpaceOnUse" color-interpolation-filters="sRGB">
<feFlood flood-opacity="0" result="BackgroundImageFix"/>
<feColorMatrix in="SourceAlpha" type="matrix" values="0 0 0 0 0 0 0 0 0 0 0 0 0 0 0 0 0 0 127 0" result="hardAlpha"/>
<feOffset dy="2"/>
<feGaussianBlur stdDeviation="10"/>
<feComposite in2="hardAlpha" operator="out"/>
<feColorMatrix type="matrix" values="0 0 0 0 0 0 0 0 0 0 0 0 0 0 0 0 0 0 0.1 0"/>
<feBlend mode="normal" in2="BackgroundImageFix" result="effect1_dropShadow_168_946"/>
<feBlend mode="normal" in="SourceGraphic" in2="effect1_dropShadow_168_946" result="shape"/>
</filter>
<clipPath id="clip0_168_946">
<rect width="29" height="29" fill="white" transform="translate(33 29)"/>
</clipPath>
</defs>
</svg>
