<svg width="128" height="22" viewBox="0 0 128 22" fill="none" xmlns="http://www.w3.org/2000/svg">
<path d="M22.0492 9.60118C22.2979 9.4159 22.4824 9.15743 22.5768 8.86201C22.6712 8.56658 22.6708 8.24903 22.5756 7.95386C22.4804 7.65869 22.2952 7.40072 22.046 7.21611C21.7968 7.0315 21.4961 6.92952 21.186 6.92445L15.1634 6.69693C15.1337 6.69489 15.1054 6.68432 15.0816 6.66651C15.0579 6.6487 15.0398 6.62441 15.0295 6.59655L12.9484 0.975433C12.8438 0.689451 12.6539 0.442509 12.4043 0.268039C12.1548 0.0935692 11.8576 0 11.5531 0C11.2486 0 10.9515 0.0935692 10.7019 0.268039C10.4524 0.442509 10.2625 0.689451 10.1579 0.975433L8.08343 6.61663C8.07317 6.64448 8.05508 6.66878 8.03134 6.68659C8.00759 6.7044 7.9792 6.71496 7.94959 6.71701L1.92696 6.94453C1.61686 6.94959 1.31613 7.05158 1.06692 7.23619C0.817717 7.4208 0.632536 7.67877 0.537345 7.97394C0.442154 8.2691 0.441727 8.58666 0.536123 8.88208C0.63052 9.1775 0.815007 9.43597 1.06372 9.62125L5.78813 13.3352C5.81178 13.3538 5.82945 13.3789 5.83897 13.4075C5.84848 13.436 5.84942 13.4667 5.84167 13.4958L4.21556 19.2575C4.13129 19.5509 4.13946 19.8631 4.23894 20.1517C4.33842 20.4403 4.52439 20.6912 4.77155 20.8704C5.0187 21.0495 5.31505 21.1482 5.62027 21.1529C5.92549 21.1577 6.22477 21.0683 6.47739 20.897L11.4695 17.551C11.4941 17.5341 11.5232 17.525 11.5531 17.525C11.583 17.525 11.6122 17.5341 11.6368 17.551L16.6289 20.897C16.8781 21.0742 17.1763 21.1694 17.4821 21.1694C17.7879 21.1694 18.0861 21.0742 18.3353 20.897C18.5825 20.7195 18.7686 20.4698 18.8681 20.1822C18.9676 19.8946 18.9755 19.5832 18.8907 19.2909L17.2512 13.5092C17.2425 13.4802 17.243 13.4492 17.2526 13.4204C17.2622 13.3917 17.2804 13.3666 17.3047 13.3486L22.0492 9.60118Z" fill="#F8F8F8"/>
<path d="M48.2309 9.60118C48.4796 9.4159 48.6641 9.15743 48.7585 8.86201C48.8529 8.56658 48.8525 8.24903 48.7573 7.95386C48.6621 7.65869 48.4769 7.40072 48.2277 7.21611C47.9785 7.0315 47.6778 6.92952 47.3677 6.92445L41.3451 6.69693C41.3155 6.69489 41.2871 6.68432 41.2633 6.66651C41.2396 6.6487 41.2215 6.62441 41.2112 6.59655L39.1301 0.975433C39.0255 0.689451 38.8356 0.442509 38.586 0.268039C38.3365 0.0935692 38.0393 0 37.7348 0C37.4303 0 37.1332 0.0935692 36.8836 0.268039C36.6341 0.442509 36.4442 0.689451 36.3396 0.975433L34.2651 6.61663C34.2549 6.64448 34.2368 6.66878 34.213 6.68659C34.1893 6.7044 34.1609 6.71496 34.1313 6.71701L28.1087 6.94453C27.7986 6.94959 27.4978 7.05158 27.2486 7.23619C26.9994 7.4208 26.8142 7.67877 26.719 7.97394C26.6239 8.2691 26.6234 8.58666 26.7178 8.88208C26.8122 9.1775 26.9967 9.43597 27.2454 9.62125L31.9698 13.3352C31.9935 13.3538 32.0112 13.3789 32.0207 13.4075C32.0302 13.436 32.0311 13.4667 32.0234 13.4958L30.3973 19.2575C30.313 19.5509 30.3212 19.8631 30.4206 20.1517C30.5201 20.4403 30.7061 20.6912 30.9532 20.8704C31.2004 21.0495 31.4968 21.1482 31.802 21.1529C32.1072 21.1577 32.4065 21.0683 32.6591 20.897L37.6512 17.551C37.6758 17.5341 37.7049 17.525 37.7348 17.525C37.7647 17.525 37.7939 17.5341 37.8185 17.551L42.8106 20.897C43.0598 21.0742 43.358 21.1694 43.6638 21.1694C43.9696 21.1694 44.2678 21.0742 44.517 20.897C44.7642 20.7195 44.9503 20.4698 45.0498 20.1822C45.1493 19.8946 45.1572 19.5832 45.0724 19.2909L43.4329 13.5092C43.4242 13.4802 43.4247 13.4492 43.4343 13.4204C43.4439 13.3917 43.4621 13.3666 43.4864 13.3486L48.2309 9.60118Z" fill="#F8F8F8"/>
<path d="M74.4126 9.60118C74.6613 9.4159 74.8458 9.15743 74.9402 8.86201C75.0346 8.56658 75.0341 8.24903 74.9389 7.95386C74.8438 7.65869 74.6586 7.40072 74.4094 7.21611C74.1602 7.0315 73.8594 6.92952 73.5493 6.92445L67.5267 6.69693C67.4971 6.69489 67.4687 6.68432 67.445 6.66651C67.4212 6.6487 67.4031 6.62441 67.3929 6.59655L65.3117 0.975433C65.2071 0.689451 65.0172 0.442509 64.7677 0.268039C64.5181 0.0935692 64.221 0 63.9165 0C63.612 0 63.3148 0.0935692 63.0653 0.268039C62.8157 0.442509 62.6258 0.689451 62.5212 0.975433L60.4468 6.61663C60.4365 6.64448 60.4184 6.66878 60.3947 6.68659C60.3709 6.7044 60.3425 6.71496 60.3129 6.71701L54.2903 6.94453C53.9802 6.94959 53.6795 7.05158 53.4303 7.23619C53.1811 7.4208 52.9959 7.67877 52.9007 7.97394C52.8055 8.2691 52.8051 8.58666 52.8995 8.88208C52.9939 9.1775 53.1783 9.43597 53.4271 9.62125L58.1515 13.3352C58.1751 13.3538 58.1928 13.3789 58.2023 13.4075C58.2118 13.436 58.2128 13.4667 58.205 13.4958L56.5789 19.2575C56.4946 19.5509 56.5028 19.8631 56.6023 20.1517C56.7018 20.4403 56.8877 20.6912 57.1349 20.8704C57.382 21.0495 57.6784 21.1482 57.9836 21.1529C58.2888 21.1577 58.5881 21.0683 58.8407 20.897L63.8328 17.551C63.8574 17.5341 63.8866 17.525 63.9165 17.525C63.9464 17.525 63.9755 17.5341 64.0001 17.551L68.9922 20.897C69.2414 21.0742 69.5396 21.1694 69.8454 21.1694C70.1512 21.1694 70.4494 21.0742 70.6986 20.897C70.9458 20.7195 71.132 20.4698 71.2315 20.1822C71.3309 19.8946 71.3388 19.5832 71.254 19.2909L69.6145 13.5092C69.6059 13.4802 69.6063 13.4492 69.6159 13.4204C69.6255 13.3917 69.6437 13.3666 69.6681 13.3486L74.4126 9.60118Z" fill="#F8F8F8"/>
<path d="M100.594 9.60118C100.843 9.4159 101.027 9.15743 101.122 8.86201C101.216 8.56658 101.216 8.24903 101.121 7.95386C101.025 7.65869 100.84 7.40072 100.591 7.21611C100.342 7.0315 100.041 6.92952 99.731 6.92445L93.7084 6.69693C93.6788 6.69489 93.6504 6.68432 93.6267 6.66651C93.6029 6.6487 93.5848 6.62441 93.5746 6.59655L91.4934 0.975433C91.3889 0.689451 91.1989 0.442509 90.9494 0.268039C90.6998 0.0935692 90.4027 0 90.0982 0C89.7937 0 89.4965 0.0935692 89.247 0.268039C88.9974 0.442509 88.8075 0.689451 88.7029 0.975433L86.6285 6.61663C86.6182 6.64448 86.6001 6.66878 86.5764 6.68659C86.5526 6.7044 86.5242 6.71496 86.4946 6.71701L80.472 6.94453C80.1619 6.94959 79.8612 7.05158 79.612 7.23619C79.3628 7.4208 79.1776 7.67877 79.0824 7.97394C78.9872 8.2691 78.9868 8.58666 79.0812 8.88208C79.1756 9.1775 79.3601 9.43597 79.6088 9.62125L84.3332 13.3352C84.3568 13.3538 84.3745 13.3789 84.384 13.4075C84.3935 13.436 84.3945 13.4667 84.3867 13.4958L82.7606 19.2575C82.6763 19.5509 82.6845 19.8631 82.784 20.1517C82.8835 20.4403 83.0694 20.6912 83.3166 20.8704C83.5637 21.0495 83.8601 21.1482 84.1653 21.1529C84.4705 21.1577 84.7698 21.0683 85.0224 20.897L90.0145 17.551C90.0391 17.5341 90.0683 17.525 90.0982 17.525C90.1281 17.525 90.1572 17.5341 90.1818 17.551L95.1739 20.897C95.4231 21.0742 95.7213 21.1694 96.0271 21.1694C96.3329 21.1694 96.6311 21.0742 96.8803 20.897C97.1275 20.7195 97.3137 20.4698 97.4132 20.1822C97.5126 19.8946 97.5205 19.5832 97.4357 19.2909L95.7962 13.5092C95.7876 13.4802 95.788 13.4492 95.7976 13.4204C95.8072 13.3917 95.8254 13.3666 95.8498 13.3486L100.594 9.60118Z" fill="#F8F8F8"/>
<path d="M126.776 9.60118C127.025 9.4159 127.209 9.15743 127.304 8.86201C127.398 8.56658 127.397 8.24903 127.302 7.95386C127.207 7.65869 127.022 7.40072 126.773 7.21611C126.524 7.0315 126.223 6.92952 125.913 6.92445L119.89 6.69693C119.86 6.69489 119.832 6.68432 119.808 6.66651C119.785 6.6487 119.766 6.62441 119.756 6.59655L117.675 0.975433C117.57 0.689451 117.381 0.442509 117.131 0.268039C116.881 0.0935692 116.584 0 116.28 0C115.975 0 115.678 0.0935692 115.429 0.268039C115.179 0.442509 114.989 0.689451 114.885 0.975433L112.81 6.61663C112.8 6.64448 112.782 6.66878 112.758 6.68659C112.734 6.7044 112.706 6.71496 112.676 6.71701L106.654 6.94453C106.344 6.94959 106.043 7.05158 105.794 7.23619C105.544 7.4208 105.359 7.67877 105.264 7.97394C105.169 8.2691 105.168 8.58666 105.263 8.88208C105.357 9.1775 105.542 9.43597 105.79 9.62125L110.515 13.3352C110.538 13.3538 110.556 13.3789 110.566 13.4075C110.575 13.436 110.576 13.4667 110.568 13.4958L108.942 19.2575C108.858 19.5509 108.866 19.8631 108.966 20.1517C109.065 20.4403 109.251 20.6912 109.498 20.8704C109.745 21.0495 110.042 21.1482 110.347 21.1529C110.652 21.1577 110.951 21.0683 111.204 20.897L116.196 17.551C116.221 17.5341 116.25 17.525 116.28 17.525C116.31 17.525 116.339 17.5341 116.363 17.551L121.356 20.897C121.605 21.0742 121.903 21.1694 122.209 21.1694C122.515 21.1694 122.813 21.0742 123.062 20.897C123.309 20.7195 123.495 20.4698 123.595 20.1822C123.694 19.8946 123.702 19.5832 123.617 19.2909L121.978 13.5092C121.969 13.4802 121.97 13.4492 121.979 13.4204C121.989 13.3917 122.007 13.3666 122.031 13.3486L126.776 9.60118Z" fill="#F8F8F8" fill-opacity="0.21"/>
</svg>
