<svg width="73" height="69" viewBox="0 0 73 69" fill="none" xmlns="http://www.w3.org/2000/svg">
<g filter="url(#filter0_d_143_984)">
<rect x="10" y="9" width="53" height="49" rx="5" fill="white"/>
<path d="M44.064 37.6919C44.484 36.709 44.712 35.6568 44.712 34.5004C44.712 33.6679 44.58 32.87 44.352 32.1299C43.572 32.3034 42.756 32.3959 41.904 32.3959C40.1592 32.3977 38.4395 31.9953 36.8898 31.2225C35.3402 30.4497 34.0061 29.3292 33 27.9556C31.9237 30.465 29.8933 32.4836 27.324 33.5985C27.276 33.8876 27.276 34.1998 27.276 34.5004C27.276 35.6044 27.5017 36.6976 27.9401 37.7175C28.3785 38.7374 29.0211 39.6642 29.8312 40.4448C31.4673 42.0213 33.6863 42.907 36 42.907C37.26 42.907 38.472 42.6411 39.564 42.167C40.248 43.4274 40.56 44.0518 40.536 44.0518C38.568 44.6878 37.044 45 36 45C33.096 45 30.324 43.9015 28.284 41.9241C27.0432 40.7322 26.1208 39.268 25.596 37.6572H24V32.3959H25.308C25.7043 30.5371 26.6154 28.8163 27.9446 27.4162C29.2739 26.0161 30.9716 24.9889 32.8578 24.4435C34.744 23.8981 36.7482 23.8549 38.6578 24.3185C40.5674 24.7821 42.3112 25.7353 43.704 27.0767C45.2163 28.5282 46.2478 30.3794 46.668 32.3959H48V37.6572H47.928L43.656 41.4385L37.296 40.7447V38.8136H43.092L44.064 37.6919ZM32.724 34.2345C33.084 34.2345 33.432 34.3732 33.684 34.6276C33.9373 34.8737 34.0794 35.2062 34.0794 35.5527C34.0794 35.8992 33.9373 36.2317 33.684 36.4778C33.432 36.7206 33.084 36.8594 32.724 36.8594C31.968 36.8594 31.356 36.2812 31.356 35.5527C31.356 34.8242 31.968 34.2345 32.724 34.2345ZM39.264 34.2345C40.02 34.2345 40.62 34.8242 40.62 35.5527C40.62 36.2812 40.02 36.8594 39.264 36.8594C38.508 36.8594 37.896 36.2812 37.896 35.5527C37.896 35.2031 38.0401 34.8678 38.2967 34.6206C38.5532 34.3734 38.9012 34.2345 39.264 34.2345Z" fill="#514BDC"/>
</g>
<defs>
<filter id="filter0_d_143_984" x="0" y="0" width="73" height="69" filterUnits="userSpaceOnUse" color-interpolation-filters="sRGB">
<feFlood flood-opacity="0" result="BackgroundImageFix"/>
<feColorMatrix in="SourceAlpha" type="matrix" values="0 0 0 0 0 0 0 0 0 0 0 0 0 0 0 0 0 0 127 0" result="hardAlpha"/>
<feOffset dy="1"/>
<feGaussianBlur stdDeviation="5"/>
<feComposite in2="hardAlpha" operator="out"/>
<feColorMatrix type="matrix" values="0 0 0 0 0 0 0 0 0 0 0 0 0 0 0 0 0 0 0.14 0"/>
<feBlend mode="normal" in2="BackgroundImageFix" result="effect1_dropShadow_143_984"/>
<feBlend mode="normal" in="SourceGraphic" in2="effect1_dropShadow_143_984" result="shape"/>
</filter>
</defs>
</svg>
